<svg width="36" height="41" viewBox="0 0 36 41" fill="none" xmlns="http://www.w3.org/2000/svg">
<path d="M28.112 12.3078L27.9162 8.61548C27.6365 3.69235 23.3008 0 18.014 0C12.7272 0 8.36353 3.69235 8.11178 8.61548L7.91597 12.3078C4.47538 12.3078 1.65017 14.7974 1.34248 18.1261L0.0277757 33.2032C-0.307892 37.2312 2.4334 40.42 6.3775 40.42H29.6225C33.5666 40.42 36.3079 37.2312 35.9722 33.2032L34.6575 18.1261C34.3778 14.7974 31.5246 12.3078 28.084 12.3078H28.112ZM12.0839 8.61548C12.1957 5.59447 14.7692 3.35668 18.014 3.35668C21.2588 3.35668 23.8602 5.59447 23.9441 8.61548L24.056 12.3078H11.944L12.0559 8.61548H12.0839ZM20.3916 25.3989L20.1679 25.6227V28.6996C20.2238 30.0423 19.3287 30.9374 18.014 30.9374C16.6993 30.9374 15.8042 30.0423 15.8042 28.6996V25.6227C14.5734 24.3359 14.3776 22.4338 15.6643 21.203C16.951 19.9722 18.8252 19.7764 20.1119 21.0072C21.3986 22.0422 21.6504 24.1401 20.3637 25.4268L20.3916 25.3989Z" fill="white"/>
</svg>
