<svg width="152" height="26" viewBox="0 0 152 26" fill="none" xmlns="http://www.w3.org/2000/svg">
<path fill-rule="evenodd" clip-rule="evenodd" d="M19.1841 1.13259C20.5211 0.389796 22.0254 0 23.5549 0H128.445C129.975 0 131.479 0.389794 132.816 1.13258L147.216 9.13258C155.334 13.6426 152.132 26 142.845 26H9.15487C-0.13195 26 -3.33406 13.6427 4.78408 9.13258L19.1841 1.13259ZM23.5549 4C23.045 4 22.5436 4.12993 22.0979 4.37753L7.69794 14.3775C4.99189 15.8809 6.05926 20 9.15487 20H142.845C145.941 20 147.008 15.8809 144.302 14.3775L129.902 4.37753C129.457 4.12993 128.955 4 128.445 4H23.5549Z" fill="url(#paint0_linear_434_4522)"/>
<mask id="mask0_434_4522" style="mask-type:alpha" maskUnits="userSpaceOnUse" x="5" y="4" width="143" height="16">
<rect x="5" y="4" width="143" height="16" fill="#D9D9D9"/>
</mask>
<g mask="url(#mask0_434_4522)">
<g filter="url(#filter0_f_434_4522)">
<ellipse cx="76" cy="27" rx="70" ry="17" fill="white"/>
</g>
</g>
<defs>
<filter id="filter0_f_434_4522" x="-4" y="0" width="160" height="54" filterUnits="userSpaceOnUse" color-interpolation-filters="sRGB">
<feFlood flood-opacity="0" result="BackgroundImageFix"/>
<feBlend mode="normal" in="SourceGraphic" in2="BackgroundImageFix" result="shape"/>
<feGaussianBlur stdDeviation="5" result="effect1_foregroundBlur_434_4522"/>
</filter>
<linearGradient id="paint0_linear_434_4522" x1="76.0001" y1="30" x2="76.0001" y2="-8" gradientUnits="userSpaceOnUse">
<stop stop-color="white"/>
<stop offset="1" stop-color="white" stop-opacity="0"/>
</linearGradient>
</defs>
</svg>
