<svg width="24" height="24" viewBox="0 0 24 24" fill="none" xmlns="http://www.w3.org/2000/svg">
<path d="M17.6 10.1028L19.44 6.92278C19.6 6.61278 19.48 6.23278 19.18 6.07278C18.89 5.92278 18.53 6.01278 18.35 6.29278L16.47 9.53278C13.61 8.32278 10.39 8.32278 7.53 9.53278L5.65 6.29278C5.46 6.00278 5.07 5.91278 4.78 6.09278C4.5 6.27278 4.41 6.63278 4.56 6.92278L6.4 10.1028C3.3 11.8728 1.28 15.0628 1 18.6228H23C22.72 15.0628 20.7 11.8728 17.6 10.1028ZM7 15.8728C6.31 15.8728 5.75 15.3128 5.75 14.6228C5.75 13.9328 6.31 13.3728 7 13.3728C7.69 13.3728 8.25 13.9328 8.25 14.6228C8.25 15.3128 7.69 15.8728 7 15.8728ZM17 15.8728C16.31 15.8728 15.75 15.3128 15.75 14.6228C15.75 13.9328 16.31 13.3728 17 13.3728C17.69 13.3728 18.25 13.9328 18.25 14.6228C18.25 15.3128 17.69 15.8728 17 15.8728Z" fill="#7DCC00"/>
</svg>
