<svg width="40" height="40" viewBox="0 0 40 40" fill="none" xmlns="http://www.w3.org/2000/svg">
<g clip-path="url(#clip0_55809_17340)">
<mask id="mask0_55809_17340" style="mask-type:luminance" maskUnits="userSpaceOnUse" x="0" y="0" width="40" height="40">
<path d="M40 0H0V40H40V0Z" fill="white"/>
</mask>
<g mask="url(#mask0_55809_17340)">
<mask id="mask1_55809_17340" style="mask-type:luminance" maskUnits="userSpaceOnUse" x="0" y="0" width="40" height="40">
<path d="M40 20C40 8.95433 31.0457 0 20 0C8.95433 0 0 8.95433 0 20C0 31.0457 8.95433 40 20 40C31.0457 40 40 31.0457 40 20Z" fill="white"/>
</mask>
<g mask="url(#mask1_55809_17340)">
<path d="M-10 0H50.0841V40H-10V0Z" fill="#009B3A"/>
<path d="M3 20.4998L20.2895 30.9996L37.5789 20.4998L20.2895 10L3 20.4998Z" fill="#FEDF00"/>
<path d="M20.2542 27.4332C24.0836 27.4332 27.188 24.3288 27.188 20.4993C27.188 16.6698 24.0836 13.5654 20.2542 13.5654C16.4247 13.5654 13.3203 16.6698 13.3203 20.4993C13.3203 24.3288 16.4247 27.4332 20.2542 27.4332Z" fill="#002776"/>
<mask id="mask2_55809_17340" style="mask-type:luminance" maskUnits="userSpaceOnUse" x="13" y="13" width="15" height="15">
<path d="M20.262 27.4341C24.0914 27.4341 27.1959 24.3297 27.1959 20.5002C27.1959 16.6708 24.0914 13.5664 20.262 13.5664C16.4325 13.5664 13.3282 16.6708 13.3282 20.5002C13.3282 24.3297 16.4325 27.4341 20.262 27.4341Z" fill="white"/>
</mask>
<g mask="url(#mask2_55809_17340)">
<path d="M-0.539001 34.3668C-0.539001 29.9007 1.23514 25.6176 4.39312 22.4596C7.55111 19.3016 11.8342 17.5273 16.3004 17.5273C20.7664 17.5273 25.0496 19.3016 28.2076 22.4596C31.3655 25.6176 33.1396 29.9007 33.1396 34.3668H32.1491C32.1491 30.1633 30.4794 26.1322 27.5071 23.1599C24.5349 20.1878 20.5036 18.5179 16.3004 18.5179C12.097 18.5179 8.06577 20.1878 5.09354 23.1599C2.12132 26.1322 0.451547 30.1633 0.451547 34.3668H-0.539001Z" fill="white"/>
</g>
<path fill-rule="evenodd" clip-rule="evenodd" d="M14.3519 18.4735C14.4302 18.4639 14.5009 18.4202 14.5487 18.3519C14.5964 18.2837 14.6173 18.1965 14.6067 18.1096C14.5959 18.0227 14.5547 17.9431 14.4918 17.8885C14.4289 17.8338 14.3497 17.8085 14.2714 17.8181C14.1932 17.8277 14.1224 17.8714 14.0747 17.9397C14.0269 18.0079 14.006 18.0951 14.0167 18.182C14.0274 18.2689 14.0687 18.3485 14.1315 18.4031C14.1944 18.4578 14.2737 18.4831 14.3519 18.4735ZM14.3369 18.3518C14.3829 18.3461 14.4243 18.319 14.452 18.2764C14.4798 18.2338 14.4917 18.1792 14.4849 18.1245C14.4782 18.0698 14.4535 18.0197 14.4163 17.9851C14.379 17.9504 14.3323 17.9342 14.2864 17.9398C14.2404 17.9453 14.199 17.9726 14.1713 18.0152C14.1435 18.0578 14.1317 18.1123 14.1384 18.1671C14.1452 18.2217 14.1698 18.2719 14.207 18.3065C14.2443 18.3411 14.291 18.3573 14.3369 18.3518Z" fill="#009B3A"/>
<path fill-rule="evenodd" clip-rule="evenodd" d="M14.8976 18.4148L15.02 18.4063L15.0029 18.1615L15.2664 18.1432C15.3214 18.1393 15.3724 18.1138 15.4085 18.0723C15.4446 18.0307 15.4629 17.9764 15.4589 17.9215C15.4551 17.8667 15.4296 17.8155 15.388 17.7794C15.3465 17.7434 15.2924 17.7252 15.2374 17.729L14.861 17.7554L14.8976 18.4148ZM14.9944 18.0392L15.2484 18.0214C15.2709 18.0199 15.2919 18.0094 15.3066 17.9924C15.3214 17.9754 15.3287 17.9533 15.3272 17.9309C15.3256 17.9084 15.3152 17.8874 15.2982 17.8727C15.2812 17.8579 15.259 17.8504 15.2366 17.852L14.9825 17.8698L14.9944 18.0392Z" fill="#009B3A"/>
<path d="M15.4543 18.3757C15.4477 18.2814 15.4332 18.0744 15.2921 18.0843L15.1133 18.0968C15.3203 18.0823 15.3348 18.2893 15.3414 18.3834" fill="#009B3A"/>
<path fill-rule="evenodd" clip-rule="evenodd" d="M15.7244 18.362L16.0356 18.3567C16.0727 18.356 16.1095 18.348 16.1436 18.3332C16.1776 18.3184 16.2085 18.297 16.2342 18.2702C16.2601 18.2435 16.2804 18.2119 16.2941 18.1774C16.3076 18.1428 16.3144 18.1059 16.3136 18.0687L16.3121 17.9744C16.3114 17.9372 16.3035 17.9007 16.2886 17.8665C16.2737 17.8324 16.2524 17.8017 16.2256 17.7757C16.199 17.7499 16.1674 17.7297 16.1327 17.716C16.0981 17.7024 16.0612 17.6957 16.0241 17.6963L15.7129 17.7018L15.7244 18.362ZM15.8449 18.2373L16.0241 18.2342C16.0716 18.2333 16.1169 18.2137 16.1499 18.1795C16.1829 18.1453 16.201 18.0993 16.2001 18.0518L16.1991 17.9952C16.1984 17.9477 16.1786 17.9024 16.1445 17.8694C16.1102 17.8364 16.0644 17.8183 16.0169 17.8192L15.8376 17.8223L15.8449 18.2373Z" fill="#009B3A"/>
<path d="M16.5628 18.3537L17.1568 18.3745L17.161 18.2519L16.6802 18.2351L16.6861 18.0654L17.0633 18.0786L17.0672 17.9654L16.6901 17.9522L16.6947 17.8202L17.1472 17.8361L17.1515 17.7135L16.5858 17.6937L16.5628 18.3537Z" fill="#009B3A"/>
<path d="M17.3996 18.3883L17.5124 18.3982L17.5518 17.9471L17.6439 18.4097L17.7473 18.4187L17.9183 17.9792L17.8789 18.4303L17.9916 18.4401L18.0492 17.7823L17.8847 17.7679L17.7137 18.2075L17.6216 17.7449L17.4571 17.7305L17.3996 18.3883Z" fill="#009B3A"/>
<path d="M18.7703 18.5443L19.2586 18.6283L19.2777 18.5167L18.9012 18.452L18.9267 18.3033L19.2336 18.356L19.2527 18.2443L18.9458 18.1917L18.9634 18.0893L19.3283 18.1521L19.3476 18.0406L18.8711 17.9587L18.7703 18.5443Z" fill="#009B3A"/>
<path fill-rule="evenodd" clip-rule="evenodd" d="M20.0242 18.7907L20.1429 18.8214L20.2043 18.5839L20.4601 18.6501C20.5134 18.6639 20.5699 18.6559 20.6174 18.6279C20.6648 18.5999 20.6992 18.5544 20.7131 18.5011C20.7268 18.4478 20.7188 18.3912 20.6909 18.3438C20.6629 18.2964 20.6173 18.2619 20.5641 18.2482L20.1987 18.1537L20.0242 18.7907ZM20.2351 18.4652L20.4816 18.5289C20.5034 18.5346 20.5266 18.5314 20.5461 18.5199C20.5654 18.5084 20.5796 18.4898 20.5851 18.4679C20.5907 18.4462 20.5876 18.4231 20.5761 18.4037C20.5646 18.3843 20.5461 18.3702 20.5242 18.3646L20.2776 18.3008L20.2351 18.4652Z" fill="#009B3A"/>
<path fill-rule="evenodd" clip-rule="evenodd" d="M20.8385 19.0069L20.9556 19.0437L21.0293 18.8098L21.2813 18.8892C21.3338 18.9058 21.3907 18.9008 21.4394 18.8754C21.4883 18.85 21.5251 18.8062 21.5416 18.7537C21.5582 18.7012 21.5532 18.6443 21.5278 18.5955C21.5023 18.5466 21.4586 18.5099 21.4061 18.4934L21.0462 18.3799L20.8385 19.0069ZM21.0662 18.6928L21.3092 18.7694C21.3306 18.7762 21.3538 18.7742 21.3738 18.7638C21.3938 18.7534 21.4088 18.7355 21.4157 18.714C21.4223 18.6925 21.4203 18.6692 21.4099 18.6493C21.3996 18.6293 21.3817 18.6143 21.3602 18.6075L21.1173 18.5309L21.0662 18.6928Z" fill="#009B3A"/>
<path d="M21.3752 19.1751C21.4037 19.0851 21.4661 18.8871 21.3311 18.8446L21.1602 18.7906C21.3581 18.8531 21.2957 19.0511 21.2672 19.1411" fill="#009B3A"/>
<path fill-rule="evenodd" clip-rule="evenodd" d="M21.9124 19.3689C21.9862 19.3966 22.0692 19.3904 22.1431 19.3519C22.2169 19.3134 22.2757 19.2458 22.3064 19.1638C22.3371 19.0818 22.3371 18.9921 22.3066 18.9146C22.2761 18.8371 22.2174 18.7781 22.1437 18.7504C22.0699 18.7229 21.9869 18.7289 21.9129 18.7674C21.8391 18.8059 21.7804 18.8736 21.7497 18.9557C21.7189 19.0377 21.7189 19.1273 21.7494 19.2048C21.7799 19.2823 21.8386 19.3414 21.9124 19.3689ZM21.9554 19.2541C21.9987 19.2703 22.0479 19.2654 22.0922 19.2404C22.1364 19.2154 22.1722 19.1724 22.1914 19.1208C22.2108 19.0693 22.2121 19.0134 22.1949 18.9654C22.1779 18.9176 22.1441 18.8814 22.1007 18.8653C22.0574 18.8491 22.0081 18.8541 21.9638 18.8789C21.9196 18.9039 21.8839 18.9469 21.8646 18.9986C21.8453 19.0502 21.8439 19.1061 21.8611 19.1539C21.8781 19.2019 21.9119 19.2379 21.9554 19.2541Z" fill="#009B3A"/>
<mask id="mask3_55809_17340" style="mask-type:luminance" maskUnits="userSpaceOnUse" x="22" y="18" width="2" height="2">
<path d="M22.4085 19.5629L22.6718 18.9573L23.2168 19.1943L22.9535 19.7999L22.4085 19.5629ZM22.8578 19.2748L22.8127 19.3787L23.0853 19.4972L23.1303 19.3933L22.8578 19.2748Z" fill="white"/>
</mask>
<g mask="url(#mask3_55809_17340)">
<path fill-rule="evenodd" clip-rule="evenodd" d="M22.6791 19.6817C22.7515 19.7131 22.8346 19.7113 22.9105 19.6768C22.9862 19.6422 23.0485 19.5777 23.0834 19.4973C23.1182 19.4171 23.123 19.3276 23.0966 19.2486C23.0702 19.1696 23.0147 19.1075 22.9425 19.0761C22.8702 19.0447 22.787 19.0463 22.7113 19.081C22.6355 19.1156 22.5732 19.1801 22.5384 19.2603C22.5034 19.3407 22.4986 19.4302 22.525 19.5092C22.5515 19.5882 22.6069 19.6503 22.6791 19.6817ZM22.728 19.5692C22.7705 19.5877 22.82 19.5853 22.8655 19.5627C22.911 19.5401 22.949 19.499 22.9709 19.4485C22.9929 19.398 22.997 19.3423 22.9825 19.2935C22.968 19.2448 22.936 19.207 22.8935 19.1886C22.8511 19.1701 22.8017 19.1725 22.7561 19.1951C22.7106 19.2178 22.6727 19.2588 22.6507 19.3093C22.6289 19.3598 22.6246 19.4155 22.6391 19.4643C22.6536 19.513 22.6856 19.5508 22.728 19.5692Z" fill="#009B3A"/>
</g>
<path d="M22.8615 19.3984L23.0907 19.4982L23.0531 19.5847L22.8239 19.4849L22.8615 19.3984Z" fill="#009B3A"/>
<path d="M23 19.4603L23.0865 19.4979L22.9549 19.8007L22.8683 19.7631L23 19.4603Z" fill="#009B3A"/>
<path fill-rule="evenodd" clip-rule="evenodd" d="M23.182 19.9045L23.2918 19.9593L23.4012 19.7398L23.6376 19.8575C23.6868 19.8821 23.7438 19.8861 23.7961 19.8686C23.8483 19.8513 23.8913 19.8138 23.9158 19.7644C23.9405 19.7151 23.9445 19.6581 23.927 19.6059C23.9096 19.5538 23.8721 19.5106 23.8228 19.4861L23.4851 19.3177L23.182 19.9045ZM23.4558 19.6299L23.6838 19.7436C23.704 19.7536 23.7273 19.7553 23.7487 19.7481C23.7701 19.741 23.7877 19.7256 23.7977 19.7055C23.8078 19.6854 23.8093 19.662 23.8023 19.6406C23.7951 19.6194 23.7798 19.6018 23.7596 19.5916L23.5317 19.478L23.4558 19.6299Z" fill="#009B3A"/>
<path d="M23.6837 20.1549C23.7258 20.0704 23.8183 19.8847 23.6917 19.8215L23.5312 19.7415C23.7171 19.8342 23.6244 20.0198 23.5823 20.1043" fill="#009B3A"/>
<path d="M23.9248 20.2833L24.4421 20.5761L24.5025 20.4693L24.0836 20.2325L24.1674 20.0847L24.4958 20.2705L24.5515 20.1718L24.2231 19.9861L24.2881 19.8712L24.6823 20.0942L24.7426 19.9873L24.25 19.7087L23.9248 20.2833Z" fill="#009B3A"/>
<path d="M24.8954 20.6072C24.8601 20.6628 24.8959 20.7249 24.9756 20.7756C25.0551 20.8263 25.1092 20.8244 25.1321 20.7888C25.2044 20.6753 24.7868 20.5099 24.9156 20.3123C25.0264 20.1426 25.2163 20.2747 25.2879 20.3203C25.3596 20.3659 25.4746 20.4839 25.3851 20.6198L25.2637 20.5426C25.3018 20.4829 25.2601 20.4256 25.1964 20.3849C25.1347 20.3458 25.0846 20.3278 25.0479 20.3854C24.9863 20.4777 25.3956 20.6518 25.2701 20.8487C25.1776 20.9938 25.0166 20.9304 24.9092 20.8621C24.8177 20.8038 24.6811 20.6663 24.7701 20.5273L24.8954 20.6072Z" fill="#009B3A"/>
<path d="M25.6042 21.0762C25.5658 21.1299 25.5984 21.1937 25.6753 21.2486C25.752 21.3034 25.8063 21.3044 25.8309 21.2699C25.909 21.1604 25.5007 20.9734 25.6395 20.7827C25.7593 20.619 25.9419 20.7609 26.011 20.8102C26.0802 20.8596 26.1889 20.9834 26.0924 21.1145L25.9754 21.031C26.0164 20.9734 25.9777 20.9139 25.9163 20.8701C25.8568 20.8276 25.8077 20.8071 25.7679 20.8627C25.7017 20.9516 26.1013 21.1469 25.9657 21.3369C25.8657 21.4771 25.7083 21.4054 25.6045 21.3314C25.5163 21.2684 25.3869 21.124 25.4832 20.9899L25.6042 21.0762Z" fill="#009B3A"/>
<path fill-rule="evenodd" clip-rule="evenodd" d="M26.2705 21.8353C26.3322 21.8844 26.413 21.9041 26.4952 21.8904C26.5772 21.8766 26.6541 21.8304 26.7086 21.7619C26.7631 21.6934 26.7909 21.6081 26.7857 21.525C26.7807 21.4419 26.7432 21.3676 26.6816 21.3185C26.6199 21.2694 26.5391 21.2496 26.4569 21.2634C26.3747 21.2771 26.298 21.3234 26.2435 21.3919C26.189 21.4605 26.1612 21.5456 26.1662 21.6288C26.1712 21.712 26.2087 21.7863 26.2705 21.8353ZM26.3469 21.7393C26.3831 21.7681 26.4314 21.7786 26.4812 21.7686C26.5311 21.7585 26.5784 21.7286 26.6126 21.6856C26.6469 21.6425 26.6654 21.5896 26.664 21.5389C26.6626 21.4881 26.6415 21.4433 26.6052 21.4145C26.569 21.3856 26.5207 21.3751 26.4707 21.3851C26.421 21.3953 26.3737 21.4251 26.3395 21.4683C26.3052 21.5113 26.2867 21.5641 26.2881 21.6149C26.2895 21.6658 26.3106 21.7105 26.3469 21.7393Z" fill="#009B3A"/>
<path d="M14.5997 18.9551L14.508 19.2377L14.6492 19.2836" fill="white"/>
<path d="M14.5997 18.9551L14.6916 19.2377L14.5504 19.2836" fill="white"/>
<path d="M14.8965 19.1592H14.5992V19.3078" fill="white"/>
<path d="M14.8965 19.1592L14.6561 19.3338L14.5687 19.2136" fill="white"/>
<path d="M14.3164 19.1612L14.5568 19.3359L14.6442 19.2157" fill="white"/>
<path d="M14.3164 19.1612H14.6136V19.3098" fill="white"/>
<path d="M14.7793 19.4926L14.6875 19.21L14.5463 19.2559" fill="white"/>
<path d="M14.7794 19.4929L14.5389 19.3181L14.6262 19.1979" fill="white"/>
<path d="M14.4277 19.4929L14.6682 19.3181L14.5808 19.1979" fill="white"/>
<path d="M14.4277 19.4926L14.5197 19.21L14.6609 19.2559" fill="white"/>
<path d="M15.217 21.8731L15.1252 22.1558L15.2665 22.2017" fill="white"/>
<path d="M15.2169 21.8731L15.3086 22.1558L15.1674 22.2017" fill="white"/>
<path d="M15.4902 22.0771H15.193V22.2257" fill="white"/>
<path d="M15.4902 22.0771L15.2497 22.2518L15.1624 22.1316" fill="white"/>
<path d="M14.9336 22.0798L15.174 22.2544L15.2613 22.1343" fill="white"/>
<path d="M14.9336 22.0798H15.2308V22.2284" fill="white"/>
<path d="M15.3886 22.4096L15.2967 22.1269L15.1554 22.1729" fill="white"/>
<path d="M15.3887 22.4098L15.1483 22.2351L15.2356 22.1149" fill="white"/>
<path d="M15.0449 22.4098L15.2853 22.2351L15.198 22.1149" fill="white"/>
<path d="M15.0449 22.4096L15.1368 22.1269L15.2781 22.1729" fill="white"/>
<path d="M14.3496 22.5439L14.2731 22.7796L14.3909 22.8178" fill="white"/>
<path d="M14.3497 22.5439L14.4262 22.7796L14.3084 22.8178" fill="white"/>
<path d="M14.6036 22.7129H14.3559V22.8366" fill="white"/>
<path d="M14.6035 22.7129L14.4032 22.8584L14.3304 22.7582" fill="white"/>
<path d="M14.1309 22.7188L14.3312 22.8643L14.404 22.7641" fill="white"/>
<path d="M14.1309 22.7188H14.3785V22.8426" fill="white"/>
<path d="M14.4843 22.9926L14.4078 22.7571L14.29 22.7953" fill="white"/>
<path d="M14.4844 22.9926L14.284 22.8469L14.3568 22.7468" fill="white"/>
<path d="M14.2012 22.9921L14.4015 22.8465L14.3287 22.7464" fill="white"/>
<path d="M14.2012 22.9923L14.2777 22.7568L14.3955 22.795" fill="white"/>
<path d="M15.8751 21.6025L15.8314 21.7371L15.8987 21.759" fill="white"/>
<path d="M15.875 21.6025L15.9187 21.7371L15.8514 21.759" fill="white"/>
<path d="M16.0098 21.6989H15.8683V21.7697" fill="white"/>
<path d="M16.0097 21.6989L15.8952 21.7821L15.8536 21.7249" fill="white"/>
<path d="M15.7481 21.7008L15.8626 21.7841L15.9042 21.7268" fill="white"/>
<path d="M15.7481 21.7008H15.8897V21.7716" fill="white"/>
<path d="M15.9534 21.8586L15.9097 21.724L15.8424 21.7458" fill="white"/>
<path d="M15.9533 21.8585L15.8388 21.7753L15.8805 21.7181" fill="white"/>
<path d="M15.8009 21.8585L15.9154 21.7753L15.8738 21.7181" fill="white"/>
<path d="M15.8009 21.8586L15.8447 21.724L15.9119 21.7458" fill="white"/>
<path d="M16.6387 22.6093L16.5622 22.8449L16.6799 22.8831" fill="white"/>
<path d="M16.6386 22.6093L16.7151 22.8449L16.5975 22.8831" fill="white"/>
<path d="M16.9004 22.7794H16.6528V22.9031" fill="white"/>
<path d="M16.9004 22.7794L16.7 22.9249L16.6273 22.8247" fill="white"/>
<path d="M16.4277 22.7842L16.6282 22.9297L16.7009 22.8296" fill="white"/>
<path d="M16.4277 22.7842H16.6754V22.908" fill="white"/>
<path d="M16.7813 23.0581L16.7048 22.8226L16.5871 22.8609" fill="white"/>
<path d="M16.7812 23.0582L16.5809 22.9126L16.6537 22.8125" fill="white"/>
<path d="M16.4902 23.0576L16.6907 22.9121L16.6178 22.8118" fill="white"/>
<path d="M16.4902 23.0574L16.5668 22.8219L16.6845 22.8602" fill="white"/>
<path d="M16.4609 23.3477L16.3998 23.5361L16.4939 23.5667" fill="white"/>
<path d="M16.461 23.3477L16.5223 23.5361L16.4281 23.5667" fill="white"/>
<path d="M16.6463 23.486H16.4482V23.585" fill="white"/>
<path d="M16.6462 23.486L16.4859 23.6024L16.4277 23.5224" fill="white"/>
<path d="M16.2792 23.4847L16.4394 23.6011L16.4977 23.521" fill="white"/>
<path d="M16.2792 23.4847H16.4773V23.5838" fill="white"/>
<path d="M16.5742 23.7067L16.513 23.5182L16.4188 23.5488" fill="white"/>
<path d="M16.5742 23.7067L16.4139 23.5902L16.4721 23.5101" fill="white"/>
<path d="M16.3379 23.7063L16.4981 23.5898L16.4399 23.5098" fill="white"/>
<path d="M16.3379 23.7064L16.3991 23.5179L16.4932 23.5486" fill="white"/>
<path d="M22.4122 18.0527L22.3205 18.3354L22.4617 18.3813" fill="white"/>
<path d="M22.4122 18.0527L22.5041 18.3354L22.3629 18.3813" fill="white"/>
<path d="M22.7012 18.2568H22.404V18.4054" fill="white"/>
<path d="M22.7012 18.2568L22.4608 18.4315L22.3734 18.3113" fill="white"/>
<path d="M22.1289 18.2587L22.3693 18.4335L22.4567 18.3132" fill="white"/>
<path d="M22.1289 18.2587H22.4261V18.4074" fill="white"/>
<path d="M22.5839 18.5902L22.4922 18.3076L22.3508 18.3535" fill="white"/>
<path d="M22.584 18.5903L22.3436 18.4158L22.4309 18.2956" fill="white"/>
<path d="M22.2402 18.5903L22.4807 18.4158L22.3933 18.2956" fill="white"/>
<path d="M22.2402 18.5902L22.3322 18.3076L22.4734 18.3535" fill="white"/>
<path d="M25.1231 22.6367L25.0312 22.9193L25.1726 22.9653" fill="white"/>
<path d="M25.1231 22.6367L25.2149 22.9193L25.0736 22.9653" fill="white"/>
<path d="M25.4043 22.8398H25.1071V22.9884" fill="white"/>
<path d="M25.4043 22.8398L25.164 23.0146L25.0767 22.8943" fill="white"/>
<path d="M24.8477 22.8428L25.0881 23.0174L25.1753 22.8972" fill="white"/>
<path d="M24.8477 22.8428H25.1447V22.9914" fill="white"/>
<path d="M25.3106 23.1733L25.2188 22.8907L25.0775 22.9365" fill="white"/>
<path d="M25.3106 23.1734L25.0702 22.9988L25.1576 22.8786" fill="white"/>
<path d="M24.959 23.1754L25.1994 23.0007L25.1121 22.8805" fill="white"/>
<path d="M24.959 23.1752L25.0507 22.8926L25.1921 22.9385" fill="white"/>
<path d="M26.0782 22.7998L26.0169 22.9881L26.1112 23.0188" fill="white"/>
<path d="M26.0781 22.7998L26.1393 22.9881L26.0451 23.0188" fill="white"/>
<path d="M26.2635 22.9372H26.0654V23.0362" fill="white"/>
<path d="M26.2634 22.9372L26.1031 23.0536L26.0449 22.9735" fill="white"/>
<path d="M25.8885 22.9378L26.0488 23.0543L26.107 22.9741" fill="white"/>
<path d="M25.8885 22.9378H26.0866V23.0369" fill="white"/>
<path d="M26.1837 23.1587L26.1224 22.9704L26.0282 23.001" fill="white"/>
<path d="M26.1836 23.1589L26.0233 23.0424L26.0815 22.9623" fill="white"/>
<path d="M25.9551 23.1585L26.1154 23.0421L26.0572 22.9619" fill="white"/>
<path d="M25.9551 23.1584L26.0164 22.9701L26.1106 23.0007" fill="white"/>
<path d="M25.3887 23.2998L25.3122 23.5353L25.4299 23.5736" fill="white"/>
<path d="M25.3886 23.2998L25.4651 23.5353L25.3475 23.5736" fill="white"/>
<path d="M25.6348 23.4678H25.3871V23.5916" fill="white"/>
<path d="M25.6349 23.4678L25.4344 23.6133L25.3617 23.5132" fill="white"/>
<path d="M25.1777 23.4737L25.3782 23.6193L25.4509 23.519" fill="white"/>
<path d="M25.1777 23.4737H25.4254V23.5975" fill="white"/>
<path d="M25.5313 23.7477L25.4548 23.5121L25.3371 23.5503" fill="white"/>
<path d="M25.5312 23.7477L25.3309 23.6021L25.4037 23.5019" fill="white"/>
<path d="M25.2402 23.7471L25.4407 23.6015L25.3678 23.5013" fill="white"/>
<path d="M25.2402 23.7472L25.3168 23.5117L25.4345 23.5499" fill="white"/>
<path d="M23.709 24.7529L23.6325 24.9884L23.7502 25.0268" fill="white"/>
<path d="M23.709 24.7529L23.7855 24.9884L23.6678 25.0268" fill="white"/>
<path d="M23.9629 24.9199H23.7153V25.0438" fill="white"/>
<path d="M23.9629 24.9199L23.7625 25.0655L23.6898 24.9653" fill="white"/>
<path d="M23.4981 24.9258L23.6984 25.0713L23.7713 24.9712" fill="white"/>
<path d="M23.4981 24.9258H23.7458V25.0496" fill="white"/>
<path d="M23.8593 25.1997L23.7828 24.9642L23.665 25.0025" fill="white"/>
<path d="M23.8594 25.1999L23.659 25.0542L23.7318 24.9541" fill="white"/>
<path d="M23.5606 25.2002L23.7609 25.0545L23.6882 24.9544" fill="white"/>
<path d="M23.5606 25.2003L23.6372 24.9648L23.7549 25.0031" fill="white"/>
<path d="M23.7032 25.499L23.6419 25.6874L23.7362 25.718" fill="white"/>
<path d="M23.7031 25.499L23.7643 25.6874L23.6701 25.718" fill="white"/>
<path d="M23.91 25.6364H23.7119V25.7355" fill="white"/>
<path d="M23.9101 25.6364L23.7498 25.7529L23.6916 25.6727" fill="white"/>
<path d="M23.5214 25.6371L23.6816 25.7536L23.7399 25.6734" fill="white"/>
<path d="M23.5214 25.6371H23.7194V25.7362" fill="white"/>
<path d="M23.832 25.858L23.7708 25.6696L23.6766 25.7001" fill="white"/>
<path d="M23.832 25.8581L23.6718 25.7416L23.7299 25.6615" fill="white"/>
<path d="M23.5879 25.8567L23.7481 25.7402L23.6899 25.6602" fill="white"/>
<path d="M23.5879 25.8568L23.6491 25.6683L23.7432 25.6989" fill="white"/>
<path d="M24.3984 24.2587L24.3373 24.4471L24.4314 24.4777" fill="white"/>
<path d="M24.3985 24.2587L24.4598 24.4471L24.3656 24.4777" fill="white"/>
<path d="M24.5975 24.3932H24.3994V24.4923" fill="white"/>
<path d="M24.5976 24.3932L24.4373 24.5098L24.3791 24.4295" fill="white"/>
<path d="M24.2089 24.3948L24.3691 24.5113L24.4274 24.4312" fill="white"/>
<path d="M24.2089 24.3948H24.4069V24.4938" fill="white"/>
<path d="M24.5195 24.6148L24.4583 24.4264L24.3641 24.457" fill="white"/>
<path d="M24.5195 24.6149L24.3593 24.4985L24.4174 24.4183" fill="white"/>
<path d="M24.291 24.6165L24.4513 24.5L24.393 24.4199" fill="white"/>
<path d="M24.291 24.6165L24.3523 24.4281L24.4464 24.4587" fill="white"/>
<path d="M24.959 23.8555L24.8825 24.091L25.0002 24.1291" fill="white"/>
<path d="M24.959 23.8555L25.0355 24.091L24.9178 24.1291" fill="white"/>
<path d="M25.2129 24.0234H24.9653V24.1474" fill="white"/>
<path d="M25.2129 24.0234L25.0125 24.169L24.9398 24.0689" fill="white"/>
<path d="M24.7481 24.0294L24.9484 24.1749L25.0213 24.0747" fill="white"/>
<path d="M24.7481 24.0294H24.9958V24.1531" fill="white"/>
<path d="M25.1015 24.3033L25.0249 24.0677L24.9072 24.106" fill="white"/>
<path d="M25.1016 24.3033L24.9012 24.1578L24.974 24.0576" fill="white"/>
<path d="M24.8106 24.3037L25.0109 24.1582L24.9382 24.0579" fill="white"/>
<path d="M24.8106 24.3039L24.8872 24.0684L25.0049 24.1067" fill="white"/>
<path d="M23.6953 24.1231L23.6341 24.3116L23.7283 24.3422" fill="white"/>
<path d="M23.6952 24.1231L23.7565 24.3116L23.6622 24.3422" fill="white"/>
<path d="M23.8885 24.2594H23.6904V24.3585" fill="white"/>
<path d="M23.8884 24.2594L23.7281 24.3759L23.6699 24.2957" fill="white"/>
<path d="M23.5057 24.2601L23.666 24.3765L23.7242 24.2964" fill="white"/>
<path d="M23.5057 24.2601H23.7038V24.3591" fill="white"/>
<path d="M23.8165 24.4811L23.7553 24.2927L23.661 24.3232" fill="white"/>
<path d="M23.8164 24.481L23.6561 24.3646L23.7142 24.2845" fill="white"/>
<path d="M23.5644 24.4817L23.7247 24.3652L23.6666 24.2852" fill="white"/>
<path d="M23.5644 24.4818L23.6256 24.2933L23.7198 24.3239" fill="white"/>
<path d="M17.5996 20.5362L17.5231 20.7717L17.6409 20.8099" fill="white"/>
<path d="M17.5997 20.5362L17.6762 20.7717L17.5584 20.8099" fill="white"/>
<path d="M17.8457 20.7051H17.5981V20.8289" fill="white"/>
<path d="M17.8457 20.7051L17.6454 20.8506L17.5726 20.7505" fill="white"/>
<path d="M17.3809 20.7109L17.5812 20.8565L17.654 20.7564" fill="white"/>
<path d="M17.3809 20.7109H17.6285V20.8349" fill="white"/>
<path d="M17.7422 20.9853L17.6657 20.7497L17.5479 20.788" fill="white"/>
<path d="M17.7422 20.9854L17.5418 20.8397L17.6146 20.7396" fill="white"/>
<path d="M17.4512 20.9844L17.6515 20.8388L17.5787 20.7386" fill="white"/>
<path d="M17.4512 20.9845L17.5277 20.749L17.6455 20.7873" fill="white"/>
<path d="M22.1563 19.9532L22.0951 20.1415L22.1893 20.1721" fill="white"/>
<path d="M22.1563 19.9532L22.2176 20.1415L22.1234 20.1721" fill="white"/>
<path d="M22.3416 20.0895H22.1436V20.1885" fill="white"/>
<path d="M22.3417 20.0895L22.1814 20.2059L22.1232 20.1258" fill="white"/>
<path d="M21.9744 20.0892L22.1348 20.2056L22.1929 20.1255" fill="white"/>
<path d="M21.9744 20.0892H22.1726V20.1882" fill="white"/>
<path d="M22.2774 20.3111L22.2161 20.1227L22.1219 20.1533" fill="white"/>
<path d="M22.2773 20.3111L22.117 20.1947L22.1753 20.1146" fill="white"/>
<path d="M22.041 20.3108L22.2013 20.1943L22.143 20.1143" fill="white"/>
<path d="M22.041 20.3109L22.1023 20.1224L22.1964 20.153" fill="white"/>
<path d="M20.2716 23.3164L20.1798 23.599L20.3211 23.6449" fill="white"/>
<path d="M20.2717 23.3164L20.3635 23.599L20.2222 23.6449" fill="white"/>
<path d="M20.5448 23.5205H20.2477V23.6691" fill="white"/>
<path d="M20.5449 23.5205L20.3044 23.6952L20.2171 23.575" fill="white"/>
<path d="M19.9883 23.5228L20.2287 23.6975L20.316 23.5773" fill="white"/>
<path d="M19.9883 23.5228H20.2854V23.6714" fill="white"/>
<path d="M20.4356 23.8529L20.3438 23.5703L20.2025 23.6162" fill="white"/>
<path d="M20.4356 23.8531L20.1952 23.6785L20.2826 23.5582" fill="white"/>
<path d="M20.0996 23.8531L20.34 23.6785L20.2528 23.5582" fill="white"/>
<path d="M20.0996 23.8529L20.1914 23.5703L20.3328 23.6162" fill="white"/>
<path d="M21.0528 21.9863L20.9763 22.2218L21.094 22.2602" fill="white"/>
<path d="M21.0528 21.9863L21.1293 22.2218L21.0116 22.2602" fill="white"/>
<path d="M21.3065 22.1553H21.0589V22.2791" fill="white"/>
<path d="M21.3067 22.1553L21.1063 22.3008L21.0335 22.2007" fill="white"/>
<path d="M20.834 22.1612L21.0342 22.3068L21.1071 22.2065" fill="white"/>
<path d="M20.834 22.1612H21.0816V22.285" fill="white"/>
<path d="M21.2031 22.4352L21.1266 22.1996L21.0087 22.2378" fill="white"/>
<path d="M21.2031 22.4352L21.0027 22.2896L21.0756 22.1894" fill="white"/>
<path d="M20.8965 22.4355L21.0967 22.29L21.024 22.1898" fill="white"/>
<path d="M20.8965 22.4353L20.973 22.1998L21.0907 22.2382" fill="white"/>
<path d="M20.2481 21.3623L20.1716 21.5978L20.2892 21.6361" fill="white"/>
<path d="M20.2482 21.3623L20.3247 21.5978L20.2068 21.6361" fill="white"/>
<path d="M20.4883 21.5294H20.2406V21.6531" fill="white"/>
<path d="M20.4882 21.5294L20.2878 21.6749L20.2151 21.5747" fill="white"/>
<path d="M20.0371 21.5371L20.2375 21.6828L20.3103 21.5825" fill="white"/>
<path d="M20.0371 21.5371H20.2848V21.6609" fill="white"/>
<path d="M20.3906 21.811L20.3141 21.5755L20.1962 21.6138" fill="white"/>
<path d="M20.3906 21.8112L20.1902 21.6657L20.2631 21.5654" fill="white"/>
<path d="M20.0996 21.8114L20.3 21.6659L20.2273 21.5657" fill="white"/>
<path d="M20.0996 21.8113L20.1761 21.5758L20.2939 21.6141" fill="white"/>
<path d="M19.5547 22.0381L19.4935 22.2265L19.5877 22.2571" fill="white"/>
<path d="M19.5547 22.0381L19.6158 22.2265L19.5217 22.2571" fill="white"/>
<path d="M19.7479 22.1735H19.5498V22.2725" fill="white"/>
<path d="M19.748 22.1735L19.5876 22.2899L19.5295 22.2099" fill="white"/>
<path d="M19.3729 22.1761L19.5331 22.2926L19.5914 22.2124" fill="white"/>
<path d="M19.3729 22.1761H19.571V22.2752" fill="white"/>
<path d="M19.6679 22.3972L19.6068 22.2087L19.5125 22.2393" fill="white"/>
<path d="M19.6679 22.3971L19.5077 22.2806L19.5659 22.2005" fill="white"/>
<path d="M19.4394 22.3969L19.5997 22.2804L19.5416 22.2002" fill="white"/>
<path d="M19.4394 22.3967L19.5006 22.2083L19.5948 22.2389" fill="white"/>
<path d="M19.8906 22.5742L19.8468 22.7088L19.9141 22.7307" fill="white"/>
<path d="M19.8905 22.5742L19.9343 22.7088L19.867 22.7307" fill="white"/>
<path d="M20.0391 22.6722H19.8976V22.7429" fill="white"/>
<path d="M20.0391 22.6722L19.9246 22.7554L19.883 22.6981" fill="white"/>
<path d="M19.7637 22.6725L19.8782 22.7557L19.9197 22.6984" fill="white"/>
<path d="M19.7637 22.6725H19.9052V22.7432" fill="white"/>
<path d="M19.9767 22.8313L19.933 22.6966L19.8657 22.7184" fill="white"/>
<path d="M19.9768 22.8312L19.8623 22.7481L19.9039 22.6907" fill="white"/>
<path d="M19.8088 22.8302L19.9233 22.747L19.8817 22.6898" fill="white"/>
<path d="M19.8088 22.8303L19.8526 22.6957L19.9199 22.7175" fill="white"/>
<path d="M22.334 24.9218L22.2575 25.1574L22.3752 25.1956" fill="white"/>
<path d="M22.334 24.9218L22.4105 25.1574L22.2928 25.1956" fill="white"/>
<path d="M22.5957 25.0908H22.3481V25.2146" fill="white"/>
<path d="M22.5957 25.0908L22.3954 25.2364L22.3226 25.1362" fill="white"/>
<path d="M22.1231 25.0956L22.3234 25.2413L22.3963 25.1411" fill="white"/>
<path d="M22.1231 25.0956H22.3708V25.2195" fill="white"/>
<path d="M22.4765 25.3706L22.3999 25.1351L22.2822 25.1734" fill="white"/>
<path d="M22.4766 25.3707L22.2762 25.2251L22.349 25.125" fill="white"/>
<path d="M22.1856 25.3691L22.3859 25.2236L22.3132 25.1234" fill="white"/>
<path d="M22.1856 25.369L22.2622 25.1335L22.3799 25.1717" fill="white"/>
<path d="M22.9375 24.3623L22.8763 24.5506L22.9705 24.5813" fill="white"/>
<path d="M22.9375 24.3623L22.9986 24.5506L22.9045 24.5813" fill="white"/>
<path d="M23.115 24.4977H22.9168V24.5968" fill="white"/>
<path d="M23.1152 24.4977L22.9548 24.6141L22.8967 24.534" fill="white"/>
<path d="M22.7479 24.4984L22.9081 24.6148L22.9664 24.5347" fill="white"/>
<path d="M22.7479 24.4984H22.946V24.5974" fill="white"/>
<path d="M23.0587 24.7194L22.9974 24.5309L22.9032 24.5615" fill="white"/>
<path d="M23.0586 24.7194L22.8983 24.603L22.9565 24.5228" fill="white"/>
<path d="M22.8066 24.72L22.9669 24.6037L22.9087 24.5234" fill="white"/>
<path d="M22.8066 24.72L22.8678 24.5316L22.962 24.5621" fill="white"/>
<path d="M21.791 24.1894L21.7299 24.3778L21.824 24.4084" fill="white"/>
<path d="M21.791 24.1894L21.8522 24.3778L21.758 24.4084" fill="white"/>
<path d="M21.99 24.3258H21.7918V24.4249" fill="white"/>
<path d="M21.9902 24.3258L21.8298 24.4423L21.7717 24.3621" fill="white"/>
<path d="M21.6151 24.3275L21.7753 24.4438L21.8335 24.3638" fill="white"/>
<path d="M21.6151 24.3275H21.8132V24.4265" fill="white"/>
<path d="M21.9121 24.5484L21.8508 24.36L21.7567 24.3907" fill="white"/>
<path d="M21.9121 24.5485L21.7518 24.4321L21.81 24.3519" fill="white"/>
<path d="M21.6738 24.5472L21.8342 24.4307L21.7758 24.3506" fill="white"/>
<path d="M21.6738 24.5471L21.735 24.3588L21.8292 24.3893" fill="white"/>
<path d="M17.4747 23.8837L17.383 24.1664L17.5242 24.2122" fill="white"/>
<path d="M17.4749 23.8837L17.5666 24.1664L17.4254 24.2122" fill="white"/>
<path d="M17.7637 24.0869H17.4665V24.2355" fill="white"/>
<path d="M17.7637 24.0869L17.5233 24.2616L17.4359 24.1414" fill="white"/>
<path d="M17.1992 24.0898L17.4396 24.2646L17.527 24.1443" fill="white"/>
<path d="M17.1992 24.0898H17.4964V24.2384" fill="white"/>
<path d="M17.6622 24.4213L17.5703 24.1387L17.429 24.1846" fill="white"/>
<path d="M17.6621 24.4215L17.4218 24.2468L17.509 24.1266" fill="white"/>
<path d="M17.3106 24.4206L17.5511 24.2458L17.4637 24.1257" fill="white"/>
<path d="M17.3106 24.4204L17.4024 24.1377L17.5438 24.1836" fill="white"/>
<path d="M20.2541 25.8232L20.2235 25.9174L20.2706 25.9328" fill="white"/>
<path d="M20.2542 25.8232L20.2848 25.9174L20.2377 25.9328" fill="white"/>
<path d="M20.3457 25.8926H20.2466V25.9421" fill="white"/>
<path d="M20.3457 25.8926L20.2656 25.9507L20.2365 25.9107" fill="white"/>
<path d="M20.1544 25.8887L20.2344 25.9468L20.2635 25.9068" fill="white"/>
<path d="M20.1544 25.8887H20.2534V25.9382" fill="white"/>
<path d="M20.3144 26.004L20.2838 25.9099L20.2367 25.9252" fill="white"/>
<path d="M20.3146 26.0039L20.2343 25.9457L20.2635 25.9056" fill="white"/>
<path d="M20.1914 26.001L20.2715 25.9427L20.2424 25.9026" fill="white"/>
<path d="M20.1914 26.0011L20.222 25.9069L20.2691 25.9222" fill="white"/>
</g>
</g>
</g>
<defs>
<clipPath id="clip0_55809_17340">
<rect width="40" height="40" fill="white"/>
</clipPath>
</defs>
</svg>
