<svg width="40" height="40" viewBox="0 0 40 40" fill="none" xmlns="http://www.w3.org/2000/svg">
<g clip-path="url(#clip0_55809_22101)">
<mask id="mask0_55809_22101" style="mask-type:luminance" maskUnits="userSpaceOnUse" x="0" y="0" width="40" height="40">
<path d="M40 0H0V40H40V0Z" fill="white"/>
</mask>
<g mask="url(#mask0_55809_22101)">
<mask id="mask1_55809_22101" style="mask-type:luminance" maskUnits="userSpaceOnUse" x="0" y="0" width="40" height="40">
<path d="M40 20C40 8.95433 31.0457 0 20 0C8.95433 0 0 8.95433 0 20C0 31.0457 8.95433 40 20 40C31.0457 40 40 31.0457 40 20Z" fill="white"/>
</mask>
<g mask="url(#mask1_55809_22101)">
<path d="M-10 0H50V40H-10V0Z" fill="#EE1C25"/>
<path d="M22.8635 8.3465C22.5909 8.43375 22.3422 8.58267 22.1366 8.78167C21.931 8.98067 21.774 9.22442 21.6779 9.49392C21.5818 9.7635 21.5491 10.0515 21.5825 10.3357C21.6158 10.6199 21.7142 10.8926 21.87 11.1326C22.1097 11.5017 22.2655 11.9188 22.3266 12.3546C22.3877 12.7904 22.3526 13.2343 22.2236 13.6551C22.0947 14.0758 21.8751 14.4632 21.5803 14.7899C21.2855 15.1167 20.9227 15.3748 20.5174 15.5462C20.1181 15.7151 19.7679 15.9819 19.4992 16.3221C19.2305 16.6622 19.0519 17.0646 18.98 17.4921C18.9081 17.9196 18.9452 18.3583 19.0879 18.7676C19.2306 19.1769 19.4742 19.5436 19.7963 19.8338C18.8277 19.1446 18.1666 18.1043 17.9541 16.9347C17.7415 15.7651 17.9942 14.5588 18.6584 13.5729C18.6326 13.5508 18.608 13.5275 18.5845 13.503C17.9048 14.5041 17.6414 15.7304 17.8499 16.9223C18.0583 18.1142 18.7224 19.1782 19.7014 19.8892C18.3283 19.3393 17.2056 18.3032 16.5473 16.9786C15.889 15.6541 15.7412 14.1335 16.132 12.7069C16.5228 11.2804 17.4249 10.0475 18.6664 9.24325C19.9078 8.43909 21.4018 8.1199 22.8635 8.3465Z" fill="white"/>
<path d="M20.1326 12.0735L18.2949 12.8749L20.2528 13.3067L18.9226 11.8066L19.117 13.802" fill="#EE1C25"/>
<path d="M31.9693 19.1211C31.802 18.8889 31.5835 18.6983 31.3308 18.5643C31.0779 18.4302 30.7976 18.3562 30.5115 18.3481C30.2255 18.34 29.9414 18.398 29.6814 18.5175C29.4214 18.637 29.1925 18.8148 29.0124 19.0372C28.7355 19.3792 28.3869 19.6563 27.9913 19.8491C27.5958 20.0419 27.1628 20.1456 26.7228 20.153C26.2828 20.1604 25.8464 20.0712 25.4446 19.8918C25.0428 19.7124 24.6851 19.4471 24.3968 19.1146C24.1129 18.7871 23.7509 18.5365 23.3444 18.386C22.9378 18.2356 22.4999 18.1901 22.0711 18.2538C21.6424 18.3175 21.2366 18.4884 20.8914 18.7506C20.5463 19.0128 20.2728 19.3578 20.0963 19.7538C20.4524 18.6196 21.2375 17.6694 22.2843 17.1059C23.3309 16.5423 24.5563 16.4099 25.6993 16.7369C25.7123 16.7056 25.7268 16.6749 25.7428 16.645C24.5806 16.308 23.333 16.4364 22.2638 17.0029C21.1948 17.5695 20.3879 18.5298 20.0143 19.6807C20.113 18.2049 20.7514 16.8169 21.8078 15.7815C22.8641 14.7462 24.2645 14.1357 25.742 14.0665C27.2195 13.9974 28.6709 14.4743 29.8193 15.4065C30.9678 16.3387 31.733 17.6609 31.9693 19.1211Z" fill="white"/>
<path d="M27.5817 17.6759L26.2516 16.1758L26.4458 18.1712L27.4615 16.4427L25.6238 17.2441" fill="#EE1C25"/>
<path d="M10.8348 27.7452C11.1065 27.8347 11.3953 27.8604 11.6786 27.8203C11.9619 27.7802 12.2322 27.6752 12.4684 27.5137C12.7045 27.3522 12.9003 27.1382 13.0404 26.8887C13.1805 26.6392 13.2611 26.3607 13.2761 26.0751C13.2992 25.6356 13.4182 25.2064 13.625 24.8181C13.8317 24.4296 14.1211 24.0911 14.4727 23.8264C14.8244 23.5618 15.2297 23.3776 15.6602 23.2866C16.0908 23.1954 16.5361 23.1998 16.9647 23.2994C17.3869 23.3974 17.8271 23.3874 18.2444 23.2702C18.6618 23.1531 19.0428 22.9324 19.3522 22.6288C19.6616 22.3252 19.8895 21.9486 20.0146 21.5336C20.1398 21.1185 20.1582 20.6787 20.0682 20.2546C20.4468 21.3814 20.3701 22.6117 19.8546 23.6827C19.3391 24.7539 18.4255 25.5813 17.3087 25.9886C17.3166 26.0216 17.3228 26.0549 17.3275 26.0886C18.4657 25.6781 19.3996 24.8408 19.9316 23.7541C20.4635 22.6672 20.5517 21.4162 20.1776 20.2654C20.9652 21.5174 21.2645 23.0156 21.0185 24.4742C20.7725 25.9327 19.9983 27.2497 18.8436 28.1742C17.6889 29.0986 16.2344 29.5657 14.7574 29.4867C13.2804 29.4074 11.8841 28.7877 10.8348 27.7452Z" fill="white"/>
<path d="M15.2343 26.3352L17.1921 26.7669L15.8621 25.2669L16.0565 27.2622L17.0721 25.5337" fill="#EE1C25"/>
<path d="M24.5325 31.1107C24.7017 30.8798 24.8154 30.6132 24.8647 30.3313C24.9142 30.0495 24.8979 29.7601 24.8172 29.4855C24.7366 29.211 24.5937 28.9587 24.3997 28.7483C24.2056 28.5381 23.9657 28.3753 23.6986 28.2727C23.2877 28.115 22.9165 27.8692 22.6109 27.5525C22.3052 27.2358 22.0729 26.856 21.9299 26.4398C21.7869 26.0237 21.7369 25.5812 21.7832 25.1436C21.8297 24.706 21.9715 24.2838 22.1987 23.907C22.4224 23.5357 22.5489 23.114 22.5664 22.6808C22.5839 22.2477 22.4917 21.8172 22.2987 21.4291C22.1056 21.041 21.8177 20.7078 21.4617 20.4606C21.1057 20.2133 20.693 20.0598 20.2619 20.0143C21.4506 20.0026 22.5969 20.4557 23.4562 21.277C24.3157 22.0983 24.8202 23.2228 24.8625 24.4108C24.8962 24.4135 24.93 24.4178 24.9634 24.4238C24.9247 23.2145 24.4171 22.0675 23.5479 21.2258C22.6787 20.3841 21.516 19.9135 20.306 19.9138C21.7402 19.5517 23.2574 19.7298 24.5686 20.4146C25.8797 21.0993 26.893 22.2425 27.4154 23.6263C27.9377 25.0102 27.9326 26.5378 27.401 27.9182C26.8692 29.2985 25.8482 30.4348 24.5325 31.1107Z" fill="white"/>
<path d="M24.5518 26.4901L25.5673 24.7616L23.7297 25.5631L25.6874 25.9948L24.3573 24.4948" fill="#EE1C25"/>
<path d="M9.80182 13.6764C9.80057 13.9625 9.86532 14.2451 9.99107 14.5022C10.1168 14.7592 10.3001 14.9838 10.5267 15.1585C10.7534 15.3332 11.0172 15.4533 11.2978 15.5094C11.5784 15.5655 11.8682 15.5562 12.1446 15.4822C12.5696 15.3683 13.0145 15.3489 13.4479 15.4255C13.8812 15.5021 14.2925 15.6727 14.6528 15.9254C15.0131 16.178 15.3137 16.5066 15.5333 16.8879C15.753 17.2692 15.8864 17.6941 15.9242 18.1325C15.9614 18.5644 16.1069 18.9799 16.3474 19.3406C16.5878 19.7013 16.9154 19.9954 17.2997 20.1959C17.684 20.3964 18.1127 20.4967 18.5461 20.4875C18.9795 20.4782 19.4036 20.3598 19.779 20.1432C18.8243 20.8514 17.6306 21.1587 16.4526 20.9994C15.2746 20.8401 14.2054 20.227 13.4729 19.2907C13.444 19.3083 13.4142 19.3246 13.3837 19.3394C14.1258 20.2951 15.2106 20.9246 16.4086 21.0946C17.6066 21.2647 18.8237 20.962 19.8025 20.2505C18.8551 21.3865 17.5228 22.1341 16.0597 22.3509C14.5965 22.5676 13.1047 22.2383 11.8687 21.4258C10.6327 20.6133 9.73891 19.3744 9.35774 17.9452C8.97657 16.516 9.13457 14.9965 9.80182 13.6764Z" fill="white"/>
<path d="M12.5033 17.4252L12.6977 19.4205L13.7133 17.6919L11.8757 18.4934L13.8334 18.9252" fill="#EE1C25"/>
</g>
</g>
</g>
<defs>
<clipPath id="clip0_55809_22101">
<rect width="40" height="40" fill="white"/>
</clipPath>
</defs>
</svg>
