<svg width="136" height="164" viewBox="0 0 136 164" fill="none" xmlns="http://www.w3.org/2000/svg">
<path d="M40.5738 104.257C63.9681 59.7274 88.8381 27.7265 106.817 10.1136C110.05 6.94618 114.99 10.5303 113.662 14.8572C103.617 47.5845 96.6823 99.3869 93.5821 124.275C93.2506 126.936 90.6462 128.679 88.0567 127.981L46.0667 116.676C40.6823 115.227 37.9804 109.193 40.5738 104.257Z" fill="white" fill-opacity="0.7"/>
<path d="M78.6598 126.303C78.1943 95.9424 81.19 71.2008 84.4024 54.5373C85.7629 47.4799 94.4075 45.8322 98.3389 51.849C110.704 70.7723 118.991 89.8174 123.227 107.296C124.091 110.862 122.457 114.524 119.332 116.447L91.8217 133.378C86.1179 136.888 78.7625 132.999 78.6598 126.303Z" fill="white" fill-opacity="0.85"/>
<path d="M13.5567 125.089C10.2621 122.127 13.2008 116.742 17.4746 117.909L124.327 147.11C128.729 148.312 129.79 154.069 126.107 156.763V156.763C120.96 160.529 114.727 162.517 108.35 162.428L60.27 161.756C56.3841 161.701 52.6499 160.239 49.76 157.641L13.5567 125.089Z" fill="url(#paint0_linear_52704_90960)" fill-opacity="0.9"/>
<defs>
<linearGradient id="paint0_linear_52704_90960" x1="67.5789" y1="112.452" x2="68.1711" y2="163.149" gradientUnits="userSpaceOnUse">
<stop stop-color="white"/>
<stop offset="1" stop-color="white" stop-opacity="0.8"/>
</linearGradient>
</defs>
</svg>
