<svg width="410" height="59" viewBox="0 0 410 59" fill="none" xmlns="http://www.w3.org/2000/svg">
<mask id="path-1-outside-1_1_17" maskUnits="userSpaceOnUse" x="0.863998" y="0.095993" width="410" height="58" fill="black">
<rect fill="white" x="0.863998" y="0.095993" width="410" height="58"/>
<path d="M1.864 45V1.09599H25.928C29.1707 1.09599 31.8587 1.67199 33.992 2.82399C36.168 3.97599 37.7893 5.59733 38.856 7.688C39.9227 9.736 40.456 12.104 40.456 14.792C40.456 17.6507 39.816 20.1893 38.536 22.408C37.256 24.584 35.4 26.248 32.968 27.4L41.928 45H31.368L23.624 29H11.4V45H1.864ZM11.4 21.448H24.648C26.568 21.448 28.0613 20.872 29.128 19.72C30.1947 18.5253 30.728 16.9253 30.728 14.92C30.728 13.64 30.4933 12.552 30.024 11.656C29.5547 10.7173 28.872 10.0133 27.976 9.54399C27.08 9.07466 25.9707 8.84 24.648 8.84H11.4V21.448ZM62.584 45.768C58.9147 45.768 55.8 45.1493 53.24 43.912C50.68 42.632 48.7387 40.6907 47.416 38.088C46.0933 35.4427 45.432 32.136 45.432 28.168C45.432 24.1147 46.0933 20.808 47.416 18.248C48.7387 15.6453 50.68 13.7253 53.24 12.488C55.8 11.208 58.9147 10.568 62.584 10.568C66.3387 10.568 69.4747 11.208 71.992 12.488C74.552 13.7253 76.4933 15.6453 77.816 18.248C79.1387 20.808 79.8 24.1147 79.8 28.168C79.8 32.136 79.1387 35.4427 77.816 38.088C76.4933 40.6907 74.552 42.632 71.992 43.912C69.4747 45.1493 66.3387 45.768 62.584 45.768ZM62.584 38.856C64.5467 38.856 66.104 38.4933 67.256 37.768C68.4507 37.0427 69.3253 35.9333 69.88 34.44C70.4347 32.9467 70.712 31.112 70.712 28.936V27.4C70.712 25.224 70.4347 23.3893 69.88 21.896C69.3253 20.4027 68.4507 19.2933 67.256 18.568C66.104 17.8 64.5467 17.416 62.584 17.416C60.664 17.416 59.1067 17.8 57.912 18.568C56.76 19.2933 55.9067 20.4027 55.352 21.896C54.7973 23.3893 54.52 25.224 54.52 27.4V28.936C54.52 31.112 54.7973 32.9467 55.352 34.44C55.9067 35.9333 56.76 37.0427 57.912 37.768C59.1067 38.4933 60.664 38.856 62.584 38.856ZM81.0135 45L93.2375 27.528L81.9095 11.336H92.5975L98.9975 21.448H99.3175L105.782 11.336H115.829L104.438 27.464L116.469 45H105.973L98.6775 33.544H98.3575L91.0615 45H81.0135ZM126.022 57.032C124.444 57.032 123.121 56.904 122.054 56.648C121.03 56.4347 120.369 56.2853 120.07 56.2V50.184H123.974C125.041 50.184 126.001 49.928 126.854 49.416C127.708 48.9467 128.454 48.3067 129.094 47.496C129.734 46.728 130.204 45.896 130.503 45L117.318 11.336H126.727L132.486 26.888C132.742 27.6133 133.02 28.5307 133.318 29.64C133.66 30.7067 134.001 31.8373 134.342 33.032C134.684 34.184 134.961 35.208 135.174 36.104H135.494C135.665 35.5067 135.857 34.8027 136.07 33.992C136.284 33.1813 136.497 32.3493 136.71 31.496C136.966 30.6427 137.201 29.832 137.415 29.064C137.671 28.2533 137.884 27.5493 138.055 26.952L142.855 11.336H151.814L140.359 43.4C139.719 45.2773 138.972 47.0267 138.118 48.648C137.308 50.312 136.348 51.7627 135.238 53C134.129 54.28 132.806 55.2613 131.27 55.944C129.777 56.6693 128.028 57.032 126.022 57.032ZM156.926 45V1.09599H182.014C184.318 1.09599 186.388 1.54399 188.223 2.43999C190.1 3.33599 191.572 4.59466 192.639 6.216C193.705 7.83733 194.238 9.736 194.238 11.912C194.238 13.6613 193.919 15.2187 193.279 16.584C192.639 17.9493 191.764 19.08 190.654 19.976C189.588 20.872 188.372 21.5333 187.007 21.96V22.216C188.628 22.5573 190.057 23.1973 191.294 24.136C192.574 25.0747 193.577 26.2907 194.303 27.784C195.071 29.2347 195.454 30.9627 195.454 32.968C195.454 35.6133 194.836 37.832 193.598 39.624C192.404 41.416 190.804 42.76 188.798 43.656C186.793 44.552 184.553 45 182.079 45H156.926ZM166.462 37.192H180.223C181.801 37.192 183.081 36.744 184.062 35.848C185.087 34.952 185.598 33.5653 185.598 31.688C185.598 30.5787 185.385 29.6187 184.958 28.808C184.532 27.9973 183.892 27.3787 183.038 26.952C182.185 26.4827 181.097 26.248 179.775 26.248H166.462V37.192ZM166.462 18.824H179.135C180.287 18.824 181.246 18.6107 182.014 18.184C182.825 17.7147 183.423 17.1173 183.807 16.392C184.233 15.624 184.447 14.7493 184.447 13.768C184.447 12.104 183.977 10.8453 183.038 9.99199C182.142 9.13866 180.948 8.71199 179.454 8.71199H166.462V18.824ZM202.346 45V11.336H209.706L210.41 16.584H210.858C211.285 15.4747 211.839 14.472 212.522 13.576C213.205 12.6373 214.058 11.8907 215.082 11.336C216.106 10.7813 217.301 10.504 218.666 10.504C219.391 10.504 220.053 10.5893 220.65 10.76C221.247 10.888 221.695 11.016 221.994 11.144V19.208H219.242C217.919 19.208 216.746 19.4 215.722 19.784C214.741 20.1253 213.909 20.68 213.226 21.448C212.543 22.216 212.031 23.1547 211.69 24.264C211.391 25.3733 211.242 26.6747 211.242 28.168V45H202.346ZM241.521 45.768C237.852 45.768 234.738 45.1493 232.178 43.912C229.618 42.632 227.676 40.6907 226.354 38.088C225.031 35.4427 224.369 32.136 224.369 28.168C224.369 24.1147 225.031 20.808 226.354 18.248C227.676 15.6453 229.618 13.7253 232.178 12.488C234.738 11.208 237.852 10.568 241.521 10.568C245.276 10.568 248.412 11.208 250.93 12.488C253.49 13.7253 255.431 15.6453 256.753 18.248C258.076 20.808 258.738 24.1147 258.738 28.168C258.738 32.136 258.076 35.4427 256.753 38.088C255.431 40.6907 253.49 42.632 250.93 43.912C248.412 45.1493 245.276 45.768 241.521 45.768ZM241.521 38.856C243.484 38.856 245.041 38.4933 246.193 37.768C247.388 37.0427 248.263 35.9333 248.818 34.44C249.372 32.9467 249.65 31.112 249.65 28.936V27.4C249.65 25.224 249.372 23.3893 248.818 21.896C248.263 20.4027 247.388 19.2933 246.193 18.568C245.041 17.8 243.484 17.416 241.521 17.416C239.601 17.416 238.044 17.8 236.85 18.568C235.698 19.2933 234.844 20.4027 234.29 21.896C233.735 23.3893 233.458 25.224 233.458 27.4V28.936C233.458 31.112 233.735 32.9467 234.29 34.44C234.844 35.9333 235.698 37.0427 236.85 37.768C238.044 38.4933 239.601 38.856 241.521 38.856ZM271.876 45L261.316 11.336H270.66L274.883 27.848C275.097 28.7013 275.289 29.6187 275.459 30.6C275.673 31.5813 275.865 32.456 276.036 33.224C276.206 33.992 276.334 34.5467 276.42 34.888H276.868C277.038 34.0347 277.209 33.16 277.38 32.264C277.593 31.3253 277.785 30.4507 277.955 29.64C278.169 28.7867 278.318 28.1467 278.403 27.72L282.436 11.336H291.715L295.876 27.784C296.046 28.3813 296.217 29.128 296.387 30.024C296.558 30.8773 296.75 31.752 296.963 32.648C297.177 33.5013 297.348 34.248 297.476 34.888H297.86C297.945 34.2907 298.073 33.5867 298.244 32.776C298.457 31.9653 298.649 31.1333 298.82 30.28C299.033 29.4267 299.225 28.6587 299.395 27.976L303.555 11.336H312.132L301.636 45H292.484L288.771 29.96C288.601 29.1493 288.388 28.2533 288.132 27.272C287.876 26.248 287.641 25.2453 287.428 24.264C287.257 23.2827 287.108 22.4293 286.98 21.704H286.596C286.596 22.088 286.51 22.6853 286.339 23.496C286.169 24.264 285.956 25.2027 285.7 26.312C285.486 27.3787 285.209 28.5947 284.868 29.96L281.028 45H271.876ZM329.978 45.768C327.631 45.768 325.519 45.512 323.642 45C321.765 44.488 320.165 43.784 318.842 42.888C317.519 41.9493 316.495 40.84 315.77 39.56C315.087 38.28 314.746 36.8293 314.746 35.208C314.746 35.0373 314.746 34.8667 314.746 34.696C314.746 34.5253 314.767 34.3973 314.81 34.312H323.386C323.386 34.3973 323.386 34.4827 323.386 34.568C323.386 34.6533 323.386 34.7387 323.386 34.824C323.429 35.8907 323.77 36.7653 324.41 37.448C325.05 38.088 325.882 38.5573 326.906 38.856C327.973 39.1547 329.082 39.304 330.234 39.304C331.258 39.304 332.239 39.2187 333.178 39.048C334.159 38.8347 334.97 38.472 335.61 37.96C336.293 37.448 336.634 36.7867 336.634 35.976C336.634 34.952 336.207 34.1627 335.354 33.608C334.543 33.0533 333.455 32.6053 332.09 32.264C330.767 31.9227 329.317 31.5387 327.738 31.112C326.287 30.7707 324.837 30.3867 323.386 29.96C321.935 29.4907 320.613 28.8933 319.418 28.168C318.266 27.4427 317.327 26.504 316.602 25.352C315.877 24.1573 315.514 22.664 315.514 20.872C315.514 19.1227 315.898 17.608 316.666 16.328C317.434 15.0053 318.479 13.9173 319.802 13.064C321.167 12.2107 322.746 11.592 324.538 11.208C326.373 10.7813 328.335 10.568 330.426 10.568C332.389 10.568 334.223 10.7813 335.93 11.208C337.637 11.592 339.13 12.1893 340.41 13C341.69 13.768 342.693 14.7493 343.418 15.944C344.143 17.096 344.506 18.3973 344.506 19.848C344.506 20.1467 344.506 20.424 344.506 20.68C344.506 20.936 344.485 21.1067 344.442 21.192H335.93V20.68C335.93 19.912 335.695 19.272 335.226 18.76C334.757 18.2053 334.074 17.7787 333.178 17.48C332.325 17.1813 331.279 17.032 330.042 17.032C329.189 17.032 328.399 17.096 327.674 17.224C326.991 17.352 326.394 17.544 325.882 17.8C325.37 18.056 324.965 18.376 324.666 18.76C324.41 19.1013 324.282 19.528 324.282 20.04C324.282 20.7653 324.581 21.3627 325.178 21.832C325.818 22.2587 326.65 22.6213 327.674 22.92C328.698 23.2187 329.829 23.5387 331.066 23.88C332.602 24.3067 334.202 24.7333 335.866 25.16C337.573 25.544 339.151 26.0773 340.602 26.76C342.053 27.4427 343.226 28.424 344.122 29.704C345.018 30.9413 345.466 32.6267 345.466 34.76C345.466 36.808 345.061 38.536 344.25 39.944C343.482 41.352 342.394 42.4827 340.986 43.336C339.578 44.1893 337.935 44.808 336.058 45.192C334.181 45.576 332.154 45.768 329.978 45.768ZM367.205 45.768C363.493 45.768 360.378 45.1493 357.86 43.912C355.343 42.632 353.445 40.6907 352.165 38.088C350.885 35.4853 350.244 32.1787 350.244 28.168C350.244 24.1147 350.885 20.808 352.165 18.248C353.445 15.6453 355.322 13.7253 357.796 12.488C360.314 11.208 363.386 10.568 367.012 10.568C370.426 10.568 373.306 11.1867 375.653 12.424C377.999 13.6187 379.77 15.496 380.964 18.056C382.159 20.5733 382.756 23.8373 382.756 27.848V30.152H359.269C359.354 32.1147 359.653 33.7787 360.165 35.144C360.719 36.5093 361.551 37.5333 362.661 38.216C363.813 38.856 365.327 39.176 367.205 39.176C368.229 39.176 369.146 39.048 369.956 38.792C370.81 38.536 371.535 38.152 372.132 37.64C372.73 37.128 373.199 36.488 373.541 35.72C373.882 34.952 374.053 34.0773 374.053 33.096H382.756C382.756 35.2293 382.373 37.0853 381.605 38.664C380.837 40.2427 379.77 41.5653 378.404 42.632C377.039 43.656 375.396 44.4453 373.476 45C371.599 45.512 369.509 45.768 367.205 45.768ZM359.396 24.52H373.605C373.605 23.24 373.434 22.1307 373.093 21.192C372.794 20.2533 372.367 19.4853 371.812 18.888C371.258 18.2907 370.575 17.864 369.765 17.608C368.997 17.3093 368.122 17.16 367.14 17.16C365.519 17.16 364.154 17.4373 363.045 17.992C361.978 18.504 361.146 19.3147 360.549 20.424C359.994 21.4907 359.61 22.856 359.396 24.52ZM389.283 45V11.336H396.644L397.347 16.584H397.795C398.222 15.4747 398.777 14.472 399.459 13.576C400.142 12.6373 400.995 11.8907 402.019 11.336C403.043 10.7813 404.238 10.504 405.604 10.504C406.329 10.504 406.99 10.5893 407.588 10.76C408.185 10.888 408.633 11.016 408.932 11.144V19.208H406.179C404.857 19.208 403.684 19.4 402.66 19.784C401.678 20.1253 400.846 20.68 400.163 21.448C399.481 22.216 398.969 23.1547 398.627 24.264C398.329 25.3733 398.179 26.6747 398.179 28.168V45H389.283Z"/>
</mask>
<path d="M1.864 45V1.09599H25.928C29.1707 1.09599 31.8587 1.67199 33.992 2.82399C36.168 3.97599 37.7893 5.59733 38.856 7.688C39.9227 9.736 40.456 12.104 40.456 14.792C40.456 17.6507 39.816 20.1893 38.536 22.408C37.256 24.584 35.4 26.248 32.968 27.4L41.928 45H31.368L23.624 29H11.4V45H1.864ZM11.4 21.448H24.648C26.568 21.448 28.0613 20.872 29.128 19.72C30.1947 18.5253 30.728 16.9253 30.728 14.92C30.728 13.64 30.4933 12.552 30.024 11.656C29.5547 10.7173 28.872 10.0133 27.976 9.54399C27.08 9.07466 25.9707 8.84 24.648 8.84H11.4V21.448ZM62.584 45.768C58.9147 45.768 55.8 45.1493 53.24 43.912C50.68 42.632 48.7387 40.6907 47.416 38.088C46.0933 35.4427 45.432 32.136 45.432 28.168C45.432 24.1147 46.0933 20.808 47.416 18.248C48.7387 15.6453 50.68 13.7253 53.24 12.488C55.8 11.208 58.9147 10.568 62.584 10.568C66.3387 10.568 69.4747 11.208 71.992 12.488C74.552 13.7253 76.4933 15.6453 77.816 18.248C79.1387 20.808 79.8 24.1147 79.8 28.168C79.8 32.136 79.1387 35.4427 77.816 38.088C76.4933 40.6907 74.552 42.632 71.992 43.912C69.4747 45.1493 66.3387 45.768 62.584 45.768ZM62.584 38.856C64.5467 38.856 66.104 38.4933 67.256 37.768C68.4507 37.0427 69.3253 35.9333 69.88 34.44C70.4347 32.9467 70.712 31.112 70.712 28.936V27.4C70.712 25.224 70.4347 23.3893 69.88 21.896C69.3253 20.4027 68.4507 19.2933 67.256 18.568C66.104 17.8 64.5467 17.416 62.584 17.416C60.664 17.416 59.1067 17.8 57.912 18.568C56.76 19.2933 55.9067 20.4027 55.352 21.896C54.7973 23.3893 54.52 25.224 54.52 27.4V28.936C54.52 31.112 54.7973 32.9467 55.352 34.44C55.9067 35.9333 56.76 37.0427 57.912 37.768C59.1067 38.4933 60.664 38.856 62.584 38.856ZM81.0135 45L93.2375 27.528L81.9095 11.336H92.5975L98.9975 21.448H99.3175L105.782 11.336H115.829L104.438 27.464L116.469 45H105.973L98.6775 33.544H98.3575L91.0615 45H81.0135ZM126.022 57.032C124.444 57.032 123.121 56.904 122.054 56.648C121.03 56.4347 120.369 56.2853 120.07 56.2V50.184H123.974C125.041 50.184 126.001 49.928 126.854 49.416C127.708 48.9467 128.454 48.3067 129.094 47.496C129.734 46.728 130.204 45.896 130.503 45L117.318 11.336H126.727L132.486 26.888C132.742 27.6133 133.02 28.5307 133.318 29.64C133.66 30.7067 134.001 31.8373 134.342 33.032C134.684 34.184 134.961 35.208 135.174 36.104H135.494C135.665 35.5067 135.857 34.8027 136.07 33.992C136.284 33.1813 136.497 32.3493 136.71 31.496C136.966 30.6427 137.201 29.832 137.415 29.064C137.671 28.2533 137.884 27.5493 138.055 26.952L142.855 11.336H151.814L140.359 43.4C139.719 45.2773 138.972 47.0267 138.118 48.648C137.308 50.312 136.348 51.7627 135.238 53C134.129 54.28 132.806 55.2613 131.27 55.944C129.777 56.6693 128.028 57.032 126.022 57.032ZM156.926 45V1.09599H182.014C184.318 1.09599 186.388 1.54399 188.223 2.43999C190.1 3.33599 191.572 4.59466 192.639 6.216C193.705 7.83733 194.238 9.736 194.238 11.912C194.238 13.6613 193.919 15.2187 193.279 16.584C192.639 17.9493 191.764 19.08 190.654 19.976C189.588 20.872 188.372 21.5333 187.007 21.96V22.216C188.628 22.5573 190.057 23.1973 191.294 24.136C192.574 25.0747 193.577 26.2907 194.303 27.784C195.071 29.2347 195.454 30.9627 195.454 32.968C195.454 35.6133 194.836 37.832 193.598 39.624C192.404 41.416 190.804 42.76 188.798 43.656C186.793 44.552 184.553 45 182.079 45H156.926ZM166.462 37.192H180.223C181.801 37.192 183.081 36.744 184.062 35.848C185.087 34.952 185.598 33.5653 185.598 31.688C185.598 30.5787 185.385 29.6187 184.958 28.808C184.532 27.9973 183.892 27.3787 183.038 26.952C182.185 26.4827 181.097 26.248 179.775 26.248H166.462V37.192ZM166.462 18.824H179.135C180.287 18.824 181.246 18.6107 182.014 18.184C182.825 17.7147 183.423 17.1173 183.807 16.392C184.233 15.624 184.447 14.7493 184.447 13.768C184.447 12.104 183.977 10.8453 183.038 9.99199C182.142 9.13866 180.948 8.71199 179.454 8.71199H166.462V18.824ZM202.346 45V11.336H209.706L210.41 16.584H210.858C211.285 15.4747 211.839 14.472 212.522 13.576C213.205 12.6373 214.058 11.8907 215.082 11.336C216.106 10.7813 217.301 10.504 218.666 10.504C219.391 10.504 220.053 10.5893 220.65 10.76C221.247 10.888 221.695 11.016 221.994 11.144V19.208H219.242C217.919 19.208 216.746 19.4 215.722 19.784C214.741 20.1253 213.909 20.68 213.226 21.448C212.543 22.216 212.031 23.1547 211.69 24.264C211.391 25.3733 211.242 26.6747 211.242 28.168V45H202.346ZM241.521 45.768C237.852 45.768 234.738 45.1493 232.178 43.912C229.618 42.632 227.676 40.6907 226.354 38.088C225.031 35.4427 224.369 32.136 224.369 28.168C224.369 24.1147 225.031 20.808 226.354 18.248C227.676 15.6453 229.618 13.7253 232.178 12.488C234.738 11.208 237.852 10.568 241.521 10.568C245.276 10.568 248.412 11.208 250.93 12.488C253.49 13.7253 255.431 15.6453 256.753 18.248C258.076 20.808 258.738 24.1147 258.738 28.168C258.738 32.136 258.076 35.4427 256.753 38.088C255.431 40.6907 253.49 42.632 250.93 43.912C248.412 45.1493 245.276 45.768 241.521 45.768ZM241.521 38.856C243.484 38.856 245.041 38.4933 246.193 37.768C247.388 37.0427 248.263 35.9333 248.818 34.44C249.372 32.9467 249.65 31.112 249.65 28.936V27.4C249.65 25.224 249.372 23.3893 248.818 21.896C248.263 20.4027 247.388 19.2933 246.193 18.568C245.041 17.8 243.484 17.416 241.521 17.416C239.601 17.416 238.044 17.8 236.85 18.568C235.698 19.2933 234.844 20.4027 234.29 21.896C233.735 23.3893 233.458 25.224 233.458 27.4V28.936C233.458 31.112 233.735 32.9467 234.29 34.44C234.844 35.9333 235.698 37.0427 236.85 37.768C238.044 38.4933 239.601 38.856 241.521 38.856ZM271.876 45L261.316 11.336H270.66L274.883 27.848C275.097 28.7013 275.289 29.6187 275.459 30.6C275.673 31.5813 275.865 32.456 276.036 33.224C276.206 33.992 276.334 34.5467 276.42 34.888H276.868C277.038 34.0347 277.209 33.16 277.38 32.264C277.593 31.3253 277.785 30.4507 277.955 29.64C278.169 28.7867 278.318 28.1467 278.403 27.72L282.436 11.336H291.715L295.876 27.784C296.046 28.3813 296.217 29.128 296.387 30.024C296.558 30.8773 296.75 31.752 296.963 32.648C297.177 33.5013 297.348 34.248 297.476 34.888H297.86C297.945 34.2907 298.073 33.5867 298.244 32.776C298.457 31.9653 298.649 31.1333 298.82 30.28C299.033 29.4267 299.225 28.6587 299.395 27.976L303.555 11.336H312.132L301.636 45H292.484L288.771 29.96C288.601 29.1493 288.388 28.2533 288.132 27.272C287.876 26.248 287.641 25.2453 287.428 24.264C287.257 23.2827 287.108 22.4293 286.98 21.704H286.596C286.596 22.088 286.51 22.6853 286.339 23.496C286.169 24.264 285.956 25.2027 285.7 26.312C285.486 27.3787 285.209 28.5947 284.868 29.96L281.028 45H271.876ZM329.978 45.768C327.631 45.768 325.519 45.512 323.642 45C321.765 44.488 320.165 43.784 318.842 42.888C317.519 41.9493 316.495 40.84 315.77 39.56C315.087 38.28 314.746 36.8293 314.746 35.208C314.746 35.0373 314.746 34.8667 314.746 34.696C314.746 34.5253 314.767 34.3973 314.81 34.312H323.386C323.386 34.3973 323.386 34.4827 323.386 34.568C323.386 34.6533 323.386 34.7387 323.386 34.824C323.429 35.8907 323.77 36.7653 324.41 37.448C325.05 38.088 325.882 38.5573 326.906 38.856C327.973 39.1547 329.082 39.304 330.234 39.304C331.258 39.304 332.239 39.2187 333.178 39.048C334.159 38.8347 334.97 38.472 335.61 37.96C336.293 37.448 336.634 36.7867 336.634 35.976C336.634 34.952 336.207 34.1627 335.354 33.608C334.543 33.0533 333.455 32.6053 332.09 32.264C330.767 31.9227 329.317 31.5387 327.738 31.112C326.287 30.7707 324.837 30.3867 323.386 29.96C321.935 29.4907 320.613 28.8933 319.418 28.168C318.266 27.4427 317.327 26.504 316.602 25.352C315.877 24.1573 315.514 22.664 315.514 20.872C315.514 19.1227 315.898 17.608 316.666 16.328C317.434 15.0053 318.479 13.9173 319.802 13.064C321.167 12.2107 322.746 11.592 324.538 11.208C326.373 10.7813 328.335 10.568 330.426 10.568C332.389 10.568 334.223 10.7813 335.93 11.208C337.637 11.592 339.13 12.1893 340.41 13C341.69 13.768 342.693 14.7493 343.418 15.944C344.143 17.096 344.506 18.3973 344.506 19.848C344.506 20.1467 344.506 20.424 344.506 20.68C344.506 20.936 344.485 21.1067 344.442 21.192H335.93V20.68C335.93 19.912 335.695 19.272 335.226 18.76C334.757 18.2053 334.074 17.7787 333.178 17.48C332.325 17.1813 331.279 17.032 330.042 17.032C329.189 17.032 328.399 17.096 327.674 17.224C326.991 17.352 326.394 17.544 325.882 17.8C325.37 18.056 324.965 18.376 324.666 18.76C324.41 19.1013 324.282 19.528 324.282 20.04C324.282 20.7653 324.581 21.3627 325.178 21.832C325.818 22.2587 326.65 22.6213 327.674 22.92C328.698 23.2187 329.829 23.5387 331.066 23.88C332.602 24.3067 334.202 24.7333 335.866 25.16C337.573 25.544 339.151 26.0773 340.602 26.76C342.053 27.4427 343.226 28.424 344.122 29.704C345.018 30.9413 345.466 32.6267 345.466 34.76C345.466 36.808 345.061 38.536 344.25 39.944C343.482 41.352 342.394 42.4827 340.986 43.336C339.578 44.1893 337.935 44.808 336.058 45.192C334.181 45.576 332.154 45.768 329.978 45.768ZM367.205 45.768C363.493 45.768 360.378 45.1493 357.86 43.912C355.343 42.632 353.445 40.6907 352.165 38.088C350.885 35.4853 350.244 32.1787 350.244 28.168C350.244 24.1147 350.885 20.808 352.165 18.248C353.445 15.6453 355.322 13.7253 357.796 12.488C360.314 11.208 363.386 10.568 367.012 10.568C370.426 10.568 373.306 11.1867 375.653 12.424C377.999 13.6187 379.77 15.496 380.964 18.056C382.159 20.5733 382.756 23.8373 382.756 27.848V30.152H359.269C359.354 32.1147 359.653 33.7787 360.165 35.144C360.719 36.5093 361.551 37.5333 362.661 38.216C363.813 38.856 365.327 39.176 367.205 39.176C368.229 39.176 369.146 39.048 369.956 38.792C370.81 38.536 371.535 38.152 372.132 37.64C372.73 37.128 373.199 36.488 373.541 35.72C373.882 34.952 374.053 34.0773 374.053 33.096H382.756C382.756 35.2293 382.373 37.0853 381.605 38.664C380.837 40.2427 379.77 41.5653 378.404 42.632C377.039 43.656 375.396 44.4453 373.476 45C371.599 45.512 369.509 45.768 367.205 45.768ZM359.396 24.52H373.605C373.605 23.24 373.434 22.1307 373.093 21.192C372.794 20.2533 372.367 19.4853 371.812 18.888C371.258 18.2907 370.575 17.864 369.765 17.608C368.997 17.3093 368.122 17.16 367.14 17.16C365.519 17.16 364.154 17.4373 363.045 17.992C361.978 18.504 361.146 19.3147 360.549 20.424C359.994 21.4907 359.61 22.856 359.396 24.52ZM389.283 45V11.336H396.644L397.347 16.584H397.795C398.222 15.4747 398.777 14.472 399.459 13.576C400.142 12.6373 400.995 11.8907 402.019 11.336C403.043 10.7813 404.238 10.504 405.604 10.504C406.329 10.504 406.99 10.5893 407.588 10.76C408.185 10.888 408.633 11.016 408.932 11.144V19.208H406.179C404.857 19.208 403.684 19.4 402.66 19.784C401.678 20.1253 400.846 20.68 400.163 21.448C399.481 22.216 398.969 23.1547 398.627 24.264C398.329 25.3733 398.179 26.6747 398.179 28.168V45H389.283Z" stroke="#898989" stroke-width="2" mask="url(#path-1-outside-1_1_17)"/>
</svg>
