<svg width="24" height="24" viewBox="0 0 24 24" fill="none" xmlns="http://www.w3.org/2000/svg">
<g clip-path="url(#clip0_10929_13690)">
<rect x="1" y="1" width="22" height="22" rx="11" fill="#EE1C25"/>
<path d="M35.65 3.20001H3.2V25.2H35.65V3.20001Z" fill="#EE1C25"/>
<path d="M9.03618 5.39999L10.9435 11.3698L5.95 7.68024H12.1224L7.12881 11.3698L9.03618 5.39999Z" fill="#FFFF00"/>
<path d="M14.8674 4.38765L14.6868 6.4719L13.6282 4.67774L15.5216 5.4965L13.5166 5.96588L14.8674 4.38765Z" fill="#FFFF00"/>
<path d="M17.3848 6.83409L16.4231 8.68372L16.1321 6.61243L17.5647 8.11422L15.5377 7.75557L17.3848 6.83409Z" fill="#FFFF00"/>
<path d="M17.6229 10.5228L16.0028 11.8125L16.568 9.80068L17.2735 11.7661L15.5667 10.5978L17.6229 10.5228Z" fill="#FFFF00"/>
<path d="M14.8253 12.0707L14.7298 14.1608L13.599 12.4128L15.5241 13.151L13.54 13.7046L14.8253 12.0707Z" fill="#FFFF00"/>
</g>
<defs>
<clipPath id="clip0_10929_13690">
<rect x="1" y="1" width="22" height="22" rx="11" fill="white"/>
</clipPath>
</defs>
</svg>
