<svg width="24" height="24" viewBox="0 0 24 24" fill="none" xmlns="http://www.w3.org/2000/svg">
<g clip-path="url(#clip0_10929_13691)">
<path d="M-4.5 1H28.5V23H-4.5V1Z" fill="#EE1C25"/>
<path d="M13.5749 5.59056C13.425 5.63855 13.2882 5.72045 13.1751 5.82991C13.062 5.93936 12.9757 6.07342 12.9228 6.22166C12.87 6.3699 12.852 6.52833 12.8703 6.68464C12.8887 6.84096 12.9428 6.99094 13.0285 7.12293C13.1603 7.32593 13.246 7.55534 13.2796 7.79503C13.3132 8.03473 13.2939 8.27887 13.223 8.51028C13.1521 8.74169 13.0313 8.95475 12.8691 9.13445C12.707 9.31416 12.5075 9.45615 12.2845 9.55042C12.065 9.64329 11.8724 9.79005 11.7246 9.97712C11.5768 10.1642 11.4785 10.3855 11.439 10.6206C11.3994 10.8557 11.4199 11.097 11.4983 11.3222C11.5768 11.5473 11.7108 11.749 11.8879 11.9086C11.3552 11.5295 10.9916 10.9574 10.8747 10.3141C10.7578 9.67081 10.8968 9.00732 11.2621 8.46507C11.248 8.45292 11.2344 8.4401 11.2215 8.42665C10.8477 8.97726 10.7028 9.6517 10.8174 10.3072C10.9321 10.9628 11.2973 11.548 11.8358 11.9391C11.0806 11.6366 10.4631 11.0668 10.101 10.3382C9.73896 9.60972 9.65765 8.77343 9.87259 7.98881C10.0875 7.20418 10.5837 6.52609 11.2665 6.0838C11.9493 5.6415 12.771 5.46593 13.5749 5.59056Z" fill="white"/>
<path d="M12.073 7.64032L11.0623 8.08112L12.1391 8.31859L11.4075 7.49356L11.5144 8.59101" fill="#EE1C25"/>
<path d="M18.5831 11.5167C18.4911 11.3889 18.371 11.2841 18.2319 11.2104C18.0929 11.1367 17.9387 11.096 17.7814 11.0915C17.6241 11.0871 17.4678 11.1189 17.3248 11.1847C17.1818 11.2504 17.0559 11.3482 16.9569 11.4705C16.8046 11.6586 16.6129 11.8111 16.3953 11.9171C16.1777 12.0231 15.9395 12.0801 15.6975 12.0842C15.4555 12.0883 15.2156 12.0392 14.9946 11.9406C14.7735 11.8419 14.5768 11.696 14.4183 11.5131C14.2621 11.333 14.063 11.1952 13.8394 11.1124C13.6158 11.0296 13.375 11.0046 13.1392 11.0397C12.9033 11.0747 12.6802 11.1687 12.4903 11.3129C12.3005 11.4571 12.1501 11.6469 12.053 11.8646C12.2489 11.2409 12.6807 10.7183 13.2563 10.4083C13.832 10.0983 14.506 10.0255 15.1346 10.2053C15.1418 10.1881 15.1498 10.1713 15.1586 10.1548C14.5194 9.96945 13.8332 10.0401 13.2452 10.3517C12.6571 10.6633 12.2134 11.1915 12.0079 11.8245C12.0622 11.0127 12.4133 10.2494 12.9943 9.67992C13.5753 9.11045 14.3455 8.7747 15.1581 8.73666C15.9708 8.69861 16.769 8.96095 17.4007 9.47365C18.0323 9.98635 18.4532 10.7136 18.5831 11.5167Z" fill="white"/>
<path d="M16.1699 10.7217L15.4384 9.89671L15.5453 10.9942L16.1038 10.0435L15.0931 10.4843" fill="#EE1C25"/>
<path d="M6.95911 16.2599C7.10858 16.3092 7.2674 16.3233 7.42322 16.3013C7.57905 16.2792 7.72769 16.2215 7.85758 16.1326C7.98748 16.0437 8.09514 15.9261 8.17219 15.7889C8.24924 15.6517 8.29361 15.4985 8.30185 15.3414C8.31453 15.0996 8.38002 14.8637 8.49373 14.65C8.60743 14.4363 8.76659 14.2502 8.95998 14.1047C9.15338 13.9591 9.37632 13.8578 9.61312 13.8077C9.84992 13.7576 10.0948 13.76 10.3306 13.8148C10.5628 13.8687 10.8049 13.8632 11.0344 13.7987C11.264 13.7342 11.4735 13.6129 11.6437 13.4459C11.8139 13.279 11.9392 13.0718 12.008 12.8435C12.0769 12.6153 12.087 12.3733 12.0375 12.1401C12.2457 12.7599 12.2035 13.4365 11.92 14.0256C11.6365 14.6148 11.134 15.0698 10.5198 15.2938C10.5241 15.312 10.5275 15.3303 10.5301 15.3488C11.1561 15.123 11.6698 14.6626 11.9623 14.0648C12.2549 13.4671 12.3034 12.779 12.0976 12.1461C12.5308 12.8347 12.6955 13.6586 12.5602 14.4608C12.4248 15.263 11.9991 15.9874 11.364 16.4958C10.7289 17.0043 9.92893 17.2612 9.11657 17.2177C8.3042 17.1742 7.53625 16.8333 6.95911 16.2599Z" fill="white"/>
<path d="M9.37892 15.4842L10.4557 15.7217L9.72415 14.8967L9.83104 15.9941L10.3896 15.0434" fill="#EE1C25"/>
<path d="M14.4929 18.1107C14.586 17.9838 14.6485 17.8371 14.6757 17.6821C14.7028 17.527 14.6939 17.3678 14.6495 17.2168C14.6051 17.0658 14.5265 16.9271 14.4198 16.8114C14.3131 16.6957 14.1812 16.6062 14.0342 16.5498C13.8083 16.4631 13.6041 16.3278 13.436 16.1537C13.2679 15.9795 13.1401 15.7706 13.0614 15.5417C12.9828 15.3128 12.9553 15.0695 12.9808 14.8288C13.0064 14.5881 13.0843 14.3559 13.2093 14.1486C13.3323 13.9444 13.4019 13.7125 13.4115 13.4743C13.4211 13.2361 13.3705 12.9993 13.2643 12.7858C13.1581 12.5724 12.9997 12.3892 12.8039 12.2531C12.6081 12.1171 12.3812 12.0327 12.1441 12.0077C12.7978 12.0013 13.4283 12.2504 13.901 12.7021C14.3737 13.1539 14.6512 13.7723 14.6744 14.4257C14.693 14.4272 14.7115 14.4296 14.7299 14.4329C14.7086 13.7678 14.4294 13.137 13.9514 12.674C13.4733 12.211 12.8338 11.9523 12.1683 11.9524C12.9571 11.7532 13.7916 11.8513 14.5127 12.2278C15.2338 12.6044 15.7912 13.2332 16.0785 13.9943C16.3658 14.7554 16.363 15.5956 16.0705 16.3548C15.7781 17.114 15.2166 17.739 14.4929 18.1107Z" fill="white"/>
<path d="M14.5035 15.5696L15.0621 14.6189L14.0514 15.0597L15.1281 15.2972L14.3966 14.4722" fill="#EE1C25"/>
<path d="M6.39099 8.52216C6.39031 8.67954 6.42593 8.83496 6.49508 8.97634C6.56423 9.11771 6.66505 9.24124 6.7897 9.33732C6.91435 9.4334 7.05948 9.49944 7.2138 9.53032C7.36813 9.56119 7.52749 9.55607 7.67951 9.51534C7.9133 9.4527 8.15798 9.44207 8.39632 9.48418C8.63467 9.52629 8.86089 9.62014 9.05906 9.7591C9.25723 9.89806 9.42253 10.0788 9.54334 10.2885C9.66415 10.4982 9.73752 10.7319 9.75829 10.973C9.77876 11.2106 9.85882 11.4391 9.99106 11.6375C10.1233 11.8358 10.3035 11.9976 10.5148 12.1079C10.7262 12.2182 10.962 12.2733 11.2004 12.2683C11.4387 12.2632 11.672 12.1981 11.8785 12.0789C11.3534 12.4684 10.6968 12.6374 10.0489 12.5498C9.40101 12.4622 8.81294 12.125 8.41011 11.61C8.39419 11.6197 8.3778 11.6287 8.36101 11.6368C8.76916 12.1625 9.36582 12.5087 10.0247 12.6022C10.6836 12.6957 11.353 12.5292 11.8914 12.138C11.3703 12.7627 10.6376 13.1739 9.83281 13.2931C9.02806 13.4123 8.20758 13.2312 7.52778 12.7844C6.84797 12.3375 6.35639 11.6561 6.14674 10.87C5.93709 10.0839 6.02403 9.24823 6.39099 8.52216Z" fill="white"/>
<path d="M7.8768 10.5838L7.9837 11.6812L8.54228 10.7305L7.53158 11.1713L8.60835 11.4088" fill="#EE1C25"/>
</g>
<defs>
<clipPath id="clip0_10929_13691">
<rect x="1" y="1" width="22" height="22" rx="11" fill="white"/>
</clipPath>
</defs>
</svg>
