<svg width="24" height="24" viewBox="0 0 24 24" fill="none" xmlns="http://www.w3.org/2000/svg">
<g clip-path="url(#clip0_11648_23302)">
<path d="M-4.5 1H28.5463V23H-4.5V1Z" fill="#009B3A"/>
<path d="M2.64999 12.2749L12.1592 18.0498L21.6684 12.2749L12.1592 6.5L2.64999 12.2749Z" fill="#FEDF00"/>
<path d="M12.1398 16.0882C14.246 16.0882 15.9534 14.3808 15.9534 12.2746C15.9534 10.1684 14.246 8.461 12.1398 8.461C10.0336 8.461 8.32617 10.1684 8.32617 12.2746C8.32617 14.3808 10.0336 16.0882 12.1398 16.0882Z" fill="#002776"/>
<mask id="mask0_11648_23302" style="mask-type:luminance" maskUnits="userSpaceOnUse" x="8" y="8" width="8" height="9">
<path d="M12.1441 16.0887C14.2503 16.0887 15.9577 14.3813 15.9577 12.2751C15.9577 10.1689 14.2503 8.46152 12.1441 8.46152C10.0379 8.46152 8.33047 10.1689 8.33047 12.2751C8.33047 14.3813 10.0379 16.0887 12.1441 16.0887Z" fill="white"/>
</mask>
<g mask="url(#mask0_11648_23302)">
<path d="M0.703522 19.9017C0.703522 17.4453 1.6793 15.0896 3.41619 13.3527C5.15308 11.6158 7.50881 10.64 9.96515 10.64C12.4215 10.64 14.7772 11.6158 16.5141 13.3527C18.251 15.0896 19.2268 17.4453 19.2268 19.9017H18.682C18.682 17.5898 17.7636 15.3727 16.1289 13.7379C14.4942 12.1032 12.277 11.1848 9.96515 11.1848C7.6533 11.1848 5.43614 12.1032 3.80142 13.7379C2.1667 15.3727 1.24832 17.5898 1.24832 19.9017H0.703522Z" fill="white"/>
</g>
<path fill-rule="evenodd" clip-rule="evenodd" d="M8.89359 11.1604C8.93661 11.1551 8.97554 11.1311 9.00181 11.0935C9.02809 11.056 9.03955 11.008 9.03368 10.9602C9.02781 10.9124 9.00509 10.8687 8.97052 10.8386C8.93594 10.8085 8.89235 10.7946 8.84933 10.7999C8.8063 10.8052 8.76737 10.8292 8.7411 10.8668C8.71483 10.9043 8.70337 10.9523 8.70923 11.0001C8.7151 11.0479 8.73782 11.0916 8.7724 11.1217C8.80697 11.1518 8.85056 11.1657 8.89359 11.1604ZM8.88537 11.0935C8.91064 11.0903 8.9334 11.0754 8.94866 11.052C8.96392 11.0286 8.97042 10.9985 8.96673 10.9685C8.96304 10.9384 8.94946 10.9108 8.92899 10.8918C8.90851 10.8727 8.88281 10.8638 8.85755 10.8669C8.83228 10.87 8.80951 10.8849 8.79425 10.9083C8.77899 10.9318 8.77249 10.9618 8.77618 10.9919C8.77987 11.0219 8.79345 11.0495 8.81393 11.0685C8.8344 11.0876 8.8601 11.0966 8.88537 11.0935Z" fill="#009B3A"/>
<path fill-rule="evenodd" clip-rule="evenodd" d="M9.19369 11.1281L9.26097 11.1234L9.25156 10.9888L9.39649 10.9786C9.42669 10.9765 9.45481 10.9625 9.47468 10.9397C9.49454 10.9168 9.50451 10.887 9.5024 10.8568C9.50029 10.8266 9.48626 10.7985 9.46342 10.7786C9.44057 10.7588 9.41076 10.7488 9.38056 10.7509L9.17353 10.7654L9.19369 11.1281ZM9.24686 10.9215L9.38661 10.9117C9.39896 10.9109 9.41047 10.9051 9.41859 10.8958C9.42672 10.8864 9.4308 10.8742 9.42993 10.8619C9.42907 10.8495 9.42333 10.838 9.41399 10.8299C9.40464 10.8218 9.39245 10.8177 9.38009 10.8186L9.24034 10.8283L9.24686 10.9215Z" fill="#009B3A"/>
<path d="M9.49987 11.1065C9.49625 11.0548 9.48828 10.9409 9.41064 10.9463L9.3123 10.9532C9.42617 10.9452 9.43414 11.0591 9.43775 11.1109" fill="#009B3A"/>
<path fill-rule="evenodd" clip-rule="evenodd" d="M9.64843 11.0991L9.81963 11.0962C9.84006 11.0958 9.86023 11.0914 9.87898 11.0833C9.89772 11.0751 9.91468 11.0633 9.92888 11.0486C9.94308 11.0339 9.95424 11.0166 9.96174 10.9976C9.96923 10.9785 9.9729 10.9582 9.97254 10.9378L9.97164 10.8859C9.97128 10.8655 9.9669 10.8453 9.95875 10.8266C9.9506 10.8078 9.93884 10.7909 9.92413 10.7767C9.90943 10.7625 9.89207 10.7513 9.87305 10.7438C9.85403 10.7363 9.83373 10.7326 9.81329 10.733L9.64209 10.736L9.64843 11.0991ZM9.71469 11.0305L9.81326 11.0288C9.8394 11.0283 9.86429 11.0175 9.88246 10.9987C9.90062 10.9799 9.91056 10.9547 9.91011 10.9285L9.90957 10.8974C9.90911 10.8712 9.89829 10.8464 9.87948 10.8282C9.86067 10.81 9.83542 10.8001 9.80928 10.8005L9.71071 10.8023L9.71469 11.0305Z" fill="#009B3A"/>
<path d="M10.1096 11.0946L10.4363 11.106L10.4386 11.0386L10.1742 11.0294L10.1774 10.936L10.3848 10.9433L10.387 10.8811L10.1796 10.8738L10.1821 10.8012L10.431 10.8099L10.4334 10.7425L10.1223 10.7316L10.1096 11.0946Z" fill="#009B3A"/>
<path d="M10.5697 11.1136L10.6317 11.119L10.6534 10.8709L10.7041 11.1253L10.761 11.1303L10.855 10.8885L10.8333 11.1367L10.8953 11.1421L10.927 10.7803L10.8365 10.7723L10.7425 11.0141L10.6918 10.7597L10.6014 10.7518L10.5697 11.1136Z" fill="#009B3A"/>
<path d="M11.3237 11.1994L11.5922 11.2455L11.6028 11.1841L11.3956 11.1485L11.4097 11.0667L11.5785 11.0957L11.589 11.0344L11.4203 11.0054L11.4299 10.9491L11.6306 10.9836L11.6412 10.9222L11.3791 10.8772L11.3237 11.1994Z" fill="#009B3A"/>
<path fill-rule="evenodd" clip-rule="evenodd" d="M12.0134 11.3349L12.0787 11.3518L12.1124 11.2212L12.2531 11.2575C12.2824 11.2651 12.3135 11.2607 12.3396 11.2454C12.3657 11.23 12.3846 11.2049 12.3922 11.1756C12.3998 11.1463 12.3954 11.1152 12.38 11.0891C12.3647 11.063 12.3396 11.0441 12.3102 11.0365L12.1093 10.9845L12.0134 11.3349ZM12.1293 11.1559L12.265 11.1909C12.2769 11.194 12.2897 11.1922 12.3003 11.186C12.311 11.1797 12.3188 11.1694 12.3219 11.1574C12.325 11.1454 12.3232 11.1327 12.3169 11.122C12.3106 11.1114 12.3003 11.1036 12.2883 11.1005L12.1527 11.0654L12.1293 11.1559Z" fill="#009B3A"/>
<path fill-rule="evenodd" clip-rule="evenodd" d="M12.4612 11.4537L12.5255 11.474L12.5661 11.3453L12.7046 11.389C12.7335 11.3981 12.7648 11.3954 12.7917 11.3814C12.8185 11.3674 12.8387 11.3434 12.8478 11.3145C12.8569 11.2856 12.8542 11.2543 12.8402 11.2275C12.8262 11.2006 12.8022 11.1804 12.7733 11.1713L12.5754 11.1089L12.4612 11.4537ZM12.5864 11.281L12.72 11.3231C12.7318 11.3269 12.7446 11.3257 12.7556 11.32C12.7666 11.3143 12.7748 11.3045 12.7786 11.2926C12.7823 11.2808 12.7812 11.268 12.7754 11.257C12.7697 11.2461 12.7599 11.2378 12.7481 11.2341L12.6145 11.1919L12.5864 11.281Z" fill="#009B3A"/>
<path d="M12.7564 11.5464C12.772 11.4969 12.8063 11.388 12.7321 11.3646L12.6381 11.335C12.7469 11.3693 12.7126 11.4782 12.697 11.5276" fill="#009B3A"/>
<path fill-rule="evenodd" clip-rule="evenodd" d="M13.0518 11.653C13.0924 11.6682 13.138 11.6648 13.1786 11.6437C13.2193 11.6225 13.2516 11.5853 13.2685 11.5402C13.2853 11.495 13.2854 11.4458 13.2686 11.4031C13.2518 11.3605 13.2196 11.328 13.179 11.3128C13.1384 11.2976 13.0927 11.301 13.0521 11.3222C13.0114 11.3433 12.9791 11.3806 12.9623 11.4257C12.9454 11.4708 12.9454 11.5201 12.9621 11.5627C12.9789 11.6054 13.0112 11.6378 13.0518 11.653ZM13.0754 11.5898C13.0992 11.5988 13.1263 11.596 13.1507 11.5823C13.175 11.5685 13.1947 11.5449 13.2053 11.5165C13.2159 11.4882 13.2166 11.4574 13.2072 11.4311C13.1978 11.4047 13.1792 11.3849 13.1553 11.376C13.1315 11.3671 13.1044 11.3698 13.0801 11.3835C13.0557 11.3973 13.0361 11.421 13.0255 11.4493C13.0149 11.4777 13.0142 11.5084 13.0235 11.5348C13.0329 11.5611 13.0515 11.5809 13.0754 11.5898Z" fill="#009B3A"/>
<mask id="mask1_11648_23302" style="mask-type:luminance" maskUnits="userSpaceOnUse" x="13" y="11" width="1" height="1">
<path d="M13.325 11.7596L13.4698 11.4265L13.7696 11.5569L13.6248 11.89L13.325 11.7596ZM13.5721 11.6012L13.5473 11.6583L13.6972 11.7234L13.722 11.6663L13.5721 11.6012Z" fill="white"/>
</mask>
<g mask="url(#mask1_11648_23302)">
<path fill-rule="evenodd" clip-rule="evenodd" d="M13.4738 11.8249C13.5136 11.8422 13.5593 11.8412 13.601 11.8222C13.6427 11.8032 13.6769 11.7677 13.6961 11.7235C13.7153 11.6793 13.7179 11.6301 13.7034 11.5867C13.6889 11.5432 13.6584 11.5091 13.6186 11.4918C13.5789 11.4745 13.5331 11.4755 13.4914 11.4945C13.4497 11.5135 13.4155 11.549 13.3963 11.5932C13.3771 11.6373 13.3745 11.6866 13.389 11.73C13.4036 11.7735 13.434 11.8076 13.4738 11.8249ZM13.5007 11.763C13.524 11.7732 13.5512 11.7719 13.5763 11.7594C13.6013 11.747 13.6222 11.7244 13.6342 11.6966C13.6463 11.6689 13.6486 11.6382 13.6406 11.6114C13.6327 11.5846 13.6151 11.5638 13.5917 11.5537C13.5684 11.5435 13.5412 11.5448 13.5162 11.5573C13.4911 11.5697 13.4703 11.5923 13.4582 11.6201C13.4461 11.6478 13.4438 11.6785 13.4518 11.7053C13.4598 11.7321 13.4774 11.7529 13.5007 11.763Z" fill="#009B3A"/>
</g>
<path d="M13.5741 11.6693L13.7002 11.7241L13.6795 11.7717L13.5534 11.7168L13.5741 11.6693Z" fill="#009B3A"/>
<path d="M13.6503 11.7032L13.6979 11.7239L13.6255 11.8904L13.5779 11.8697L13.6503 11.7032Z" fill="#009B3A"/>
<path fill-rule="evenodd" clip-rule="evenodd" d="M13.75 11.9475L13.8104 11.9776L13.8706 11.8568L14.0006 11.9217C14.0277 11.9352 14.0591 11.9374 14.0878 11.9278C14.1165 11.9182 14.1402 11.8975 14.1537 11.8704C14.1672 11.8434 14.1694 11.812 14.1598 11.7833C14.1502 11.7546 14.1296 11.7309 14.1025 11.7174L13.9167 11.6248L13.75 11.9475ZM13.9007 11.7965L14.0261 11.859C14.0372 11.8645 14.05 11.8654 14.0617 11.8615C14.0735 11.8576 14.0832 11.8491 14.0887 11.838C14.0942 11.827 14.0951 11.8141 14.0912 11.8024C14.0873 11.7906 14.0788 11.7809 14.0677 11.7754L13.9424 11.7129L13.9007 11.7965Z" fill="#009B3A"/>
<path d="M14.026 12.0853C14.0491 12.0388 14.1001 11.9367 14.0304 11.902L13.9422 11.858C14.0443 11.9089 13.9934 12.0111 13.9702 12.0575" fill="#009B3A"/>
<path d="M14.1586 12.1558L14.4431 12.3168L14.4764 12.2581L14.2461 12.1278L14.292 12.0465L14.4727 12.1487L14.5033 12.0945L14.3227 11.9923L14.3585 11.9291L14.5752 12.0517L14.6084 11.993L14.3375 11.8397L14.1586 12.1558Z" fill="#009B3A"/>
<path d="M14.6925 12.334C14.673 12.3647 14.6927 12.3988 14.7365 12.4267C14.7803 12.4546 14.8101 12.4536 14.8227 12.4339C14.8624 12.3715 14.6327 12.2806 14.7035 12.1719C14.7645 12.0785 14.869 12.1512 14.9083 12.1763C14.9477 12.2013 15.011 12.2662 14.9618 12.341L14.8951 12.2985C14.916 12.2657 14.893 12.2342 14.858 12.2119C14.8241 12.1902 14.7965 12.1804 14.7763 12.2121C14.7425 12.2628 14.9675 12.3585 14.8985 12.4669C14.8477 12.5467 14.7591 12.5119 14.7001 12.4742C14.6497 12.4422 14.5746 12.3666 14.6236 12.2901L14.6925 12.334Z" fill="#009B3A"/>
<path d="M15.0822 12.5919C15.0611 12.6214 15.0791 12.6565 15.1213 12.6867C15.1636 12.7168 15.1934 12.7174 15.207 12.6984C15.2499 12.6382 15.0253 12.5353 15.1017 12.4305C15.1676 12.3404 15.268 12.4185 15.3061 12.4456C15.3441 12.4727 15.4038 12.5408 15.3508 12.6129L15.2864 12.567C15.309 12.5353 15.2877 12.5026 15.2539 12.4785C15.2212 12.4551 15.1942 12.4439 15.1723 12.4745C15.1359 12.5234 15.3556 12.6307 15.2811 12.7353C15.2261 12.8124 15.1395 12.7729 15.0825 12.7322C15.0339 12.6976 14.9628 12.6182 15.0157 12.5444L15.0822 12.5919Z" fill="#009B3A"/>
<path fill-rule="evenodd" clip-rule="evenodd" d="M15.4488 13.0094C15.4827 13.0364 15.5271 13.0473 15.5723 13.0397C15.6175 13.0321 15.6597 13.0067 15.6897 12.969C15.7197 12.9313 15.735 12.8845 15.7322 12.8387C15.7294 12.793 15.7088 12.7521 15.6749 12.7252C15.6409 12.6982 15.5965 12.6873 15.5513 12.6948C15.5061 12.7024 15.4639 12.7278 15.4339 12.7655C15.4039 12.8032 15.3886 12.8501 15.3914 12.8958C15.3942 12.9416 15.4148 12.9824 15.4488 13.0094ZM15.4908 12.9566C15.5107 12.9725 15.5373 12.9782 15.5647 12.9727C15.5921 12.9672 15.6181 12.9507 15.6369 12.927C15.6558 12.9033 15.6659 12.8743 15.6652 12.8464C15.6644 12.8184 15.6528 12.7938 15.6329 12.7779C15.6129 12.7621 15.5864 12.7563 15.5589 12.7619C15.5315 12.7674 15.5055 12.7838 15.4867 12.8075C15.4678 12.8312 15.4577 12.8602 15.4584 12.8882C15.4592 12.9162 15.4708 12.9408 15.4908 12.9566Z" fill="#009B3A"/>
<path d="M9.02986 11.4253L8.97936 11.5807L9.05708 11.606" fill="white"/>
<path d="M9.02986 11.4253L9.08037 11.5807L9.00265 11.606" fill="white"/>
<path d="M9.19307 11.5375H9.02963V11.6193" fill="white"/>
<path d="M9.19307 11.5375L9.06084 11.6336L9.01281 11.5675" fill="white"/>
<path d="M8.87402 11.5386L9.00625 11.6347L9.05428 11.5686" fill="white"/>
<path d="M8.87402 11.5386H9.03746V11.6204" fill="white"/>
<path d="M9.12885 11.721L9.07834 11.5655L9.00062 11.5908" fill="white"/>
<path d="M9.12885 11.721L8.99662 11.6249L9.04465 11.5588" fill="white"/>
<path d="M8.93549 11.721L9.06771 11.6249L9.01968 11.5588" fill="white"/>
<path d="M8.93549 11.721L8.98599 11.5655L9.06371 11.5908" fill="white"/>
<path d="M9.36932 13.0302L9.31882 13.1856L9.39654 13.2109" fill="white"/>
<path d="M9.36932 13.0302L9.41983 13.1856L9.34211 13.2109" fill="white"/>
<path d="M9.51962 13.1424H9.35618V13.2241" fill="white"/>
<path d="M9.51962 13.1424L9.3874 13.2385L9.33936 13.1724" fill="white"/>
<path d="M9.21347 13.1438L9.3457 13.2398L9.39373 13.1737" fill="white"/>
<path d="M9.21347 13.1438H9.37691V13.2255" fill="white"/>
<path d="M9.46399 13.3253L9.41348 13.1699L9.33576 13.1951" fill="white"/>
<path d="M9.46399 13.3253L9.33176 13.2292L9.3798 13.1631" fill="white"/>
<path d="M9.27493 13.3253L9.40716 13.2292L9.35913 13.1631" fill="white"/>
<path d="M9.27493 13.3253L9.32544 13.1699L9.40316 13.1951" fill="white"/>
<path d="M8.89206 13.3992L8.84997 13.5287L8.91474 13.5497" fill="white"/>
<path d="M8.89206 13.3992L8.93415 13.5287L8.86938 13.5497" fill="white"/>
<path d="M9.03194 13.4921H8.89574V13.5602" fill="white"/>
<path d="M9.03194 13.4921L8.92175 13.5721L8.88172 13.517" fill="white"/>
<path d="M8.77197 13.4953L8.88216 13.5754L8.92219 13.5203" fill="white"/>
<path d="M8.77197 13.4953H8.90817V13.5634" fill="white"/>
<path d="M8.9664 13.646L8.92431 13.5164L8.85954 13.5375" fill="white"/>
<path d="M8.9664 13.646L8.85621 13.5659L8.89624 13.5108" fill="white"/>
<path d="M8.81064 13.6457L8.92083 13.5657L8.8808 13.5106" fill="white"/>
<path d="M8.81064 13.6457L8.85273 13.5162L8.91749 13.5372" fill="white"/>
<path d="M9.73125 12.8814L9.7072 12.9554L9.74421 12.9675" fill="white"/>
<path d="M9.73125 12.8814L9.7553 12.9554L9.71829 12.9675" fill="white"/>
<path d="M9.80539 12.9345H9.72756V12.9734" fill="white"/>
<path d="M9.80539 12.9345L9.74242 12.9802L9.71955 12.9487" fill="white"/>
<path d="M9.66144 12.9355L9.7244 12.9812L9.74728 12.9497" fill="white"/>
<path d="M9.66144 12.9355H9.73927V12.9744" fill="white"/>
<path d="M9.77437 13.0221L9.75032 12.9481L9.71331 12.9601" fill="white"/>
<path d="M9.77437 13.0221L9.7114 12.9764L9.73428 12.9449" fill="white"/>
<path d="M9.69058 13.0221L9.75355 12.9764L9.73067 12.9449" fill="white"/>
<path d="M9.69058 13.0221L9.71463 12.9481L9.75164 12.9601" fill="white"/>
<path d="M10.1514 13.4352L10.1093 13.5647L10.1741 13.5857" fill="white"/>
<path d="M10.1514 13.4352L10.1935 13.5647L10.1287 13.5857" fill="white"/>
<path d="M10.2955 13.5286H10.1593V13.5967" fill="white"/>
<path d="M10.2955 13.5286L10.1853 13.6087L10.1453 13.5536" fill="white"/>
<path d="M10.0353 13.5313L10.1454 13.6114L10.1855 13.5563" fill="white"/>
<path d="M10.0353 13.5313H10.1715V13.5994" fill="white"/>
<path d="M10.23 13.6819L10.1879 13.5524L10.1232 13.5735" fill="white"/>
<path d="M10.23 13.6819L10.1198 13.6019L10.1599 13.5468" fill="white"/>
<path d="M10.0696 13.6817L10.1798 13.6016L10.1398 13.5466" fill="white"/>
<path d="M10.0696 13.6817L10.1117 13.5522L10.1765 13.5732" fill="white"/>
<path d="M10.0535 13.8412L10.0198 13.9448L10.0717 13.9617" fill="white"/>
<path d="M10.0535 13.8412L10.0872 13.9448L10.0354 13.9617" fill="white"/>
<path d="M10.1555 13.9174H10.0465V13.9718" fill="white"/>
<path d="M10.1555 13.9174L10.0673 13.9814L10.0353 13.9373" fill="white"/>
<path d="M9.95351 13.9167L10.0417 13.9807L10.0737 13.9366" fill="white"/>
<path d="M9.95351 13.9167H10.0625V13.9711" fill="white"/>
<path d="M10.1158 14.0387L10.0821 13.9351L10.0303 13.9519" fill="white"/>
<path d="M10.1158 14.0387L10.0276 13.9747L10.0597 13.9306" fill="white"/>
<path d="M9.98581 14.0385L10.074 13.9744L10.0419 13.9304" fill="white"/>
<path d="M9.98581 14.0385L10.0195 13.9349L10.0713 13.9517" fill="white"/>
<path d="M13.3267 10.929L13.2762 11.0845L13.354 11.1097" fill="white"/>
<path d="M13.3267 10.929L13.3772 11.0845L13.2995 11.1097" fill="white"/>
<path d="M13.4854 11.0413H13.3219V11.123" fill="white"/>
<path d="M13.4854 11.0413L13.3531 11.1373L13.3051 11.0712" fill="white"/>
<path d="M13.1709 11.0424L13.3031 11.1384L13.3512 11.0723" fill="white"/>
<path d="M13.1709 11.0424H13.3343V11.1241" fill="white"/>
<path d="M13.4214 11.2247L13.3709 11.0693L13.2932 11.0945" fill="white"/>
<path d="M13.4214 11.2247L13.2892 11.1286L13.3372 11.0625" fill="white"/>
<path d="M13.2324 11.2247L13.3646 11.1286L13.3166 11.0625" fill="white"/>
<path d="M13.2324 11.2247L13.2829 11.0693L13.3606 11.0945" fill="white"/>
<path d="M14.818 13.4502L14.7675 13.6056L14.8452 13.6309" fill="white"/>
<path d="M14.818 13.4502L14.8685 13.6056L14.7908 13.6309" fill="white"/>
<path d="M14.9724 13.5619H14.8089V13.6436" fill="white"/>
<path d="M14.9724 13.5619L14.8401 13.658L14.7921 13.5919" fill="white"/>
<path d="M14.6662 13.5635L14.7984 13.6596L14.8465 13.5935" fill="white"/>
<path d="M14.6662 13.5635H14.8297V13.6453" fill="white"/>
<path d="M14.921 13.7453L14.8705 13.5899L14.7928 13.6151" fill="white"/>
<path d="M14.921 13.7453L14.7888 13.6493L14.8369 13.5831" fill="white"/>
<path d="M14.7277 13.7464L14.8599 13.6503L14.8119 13.5842" fill="white"/>
<path d="M14.7277 13.7464L14.7782 13.591L14.8559 13.6162" fill="white"/>
<path d="M15.343 13.5399L15.3093 13.6435L15.3611 13.6603" fill="white"/>
<path d="M15.343 13.5399L15.3766 13.6435L15.3248 13.6603" fill="white"/>
<path d="M15.4449 13.6155H15.336V13.67" fill="white"/>
<path d="M15.4449 13.6155L15.3568 13.6795L15.3247 13.6354" fill="white"/>
<path d="M15.2387 13.6158L15.3268 13.6799L15.3588 13.6358" fill="white"/>
<path d="M15.2387 13.6158H15.3476V13.6703" fill="white"/>
<path d="M15.401 13.7374L15.3673 13.6338L15.3155 13.6506" fill="white"/>
<path d="M15.401 13.7374L15.3128 13.6734L15.3448 13.6293" fill="white"/>
<path d="M15.2753 13.7372L15.3634 13.6731L15.3314 13.629" fill="white"/>
<path d="M15.2753 13.7372L15.3089 13.6335L15.3608 13.6504" fill="white"/>
<path d="M14.9639 13.8149L14.9218 13.9444L14.9866 13.9655" fill="white"/>
<path d="M14.9639 13.8149L15.006 13.9444L14.9412 13.9655" fill="white"/>
<path d="M15.0991 13.9073H14.9629V13.9754" fill="white"/>
<path d="M15.0991 13.9073L14.9889 13.9873L14.9489 13.9322" fill="white"/>
<path d="M14.8478 13.9105L14.9579 13.9905L14.998 13.9355" fill="white"/>
<path d="M14.8478 13.9105H14.984V13.9786" fill="white"/>
<path d="M15.0425 14.0611L15.0004 13.9316L14.9357 13.9526" fill="white"/>
<path d="M15.0425 14.0611L14.9323 13.9811L14.9724 13.926" fill="white"/>
<path d="M14.8821 14.0609L14.9923 13.9808L14.9523 13.9257" fill="white"/>
<path d="M14.8821 14.0609L14.9242 13.9313L14.989 13.9524" fill="white"/>
<path d="M14.0401 14.6141L13.998 14.7436L14.0627 14.7647" fill="white"/>
<path d="M14.0401 14.6141L14.0822 14.7436L14.0174 14.7647" fill="white"/>
<path d="M14.1796 14.7059H14.0434V14.774" fill="white"/>
<path d="M14.1796 14.7059L14.0694 14.786L14.0294 14.7309" fill="white"/>
<path d="M13.9239 14.7092L14.0341 14.7893L14.0741 14.7342" fill="white"/>
<path d="M13.9239 14.7092H14.0601V14.7773" fill="white"/>
<path d="M14.1227 14.8598L14.0806 14.7303L14.0158 14.7513" fill="white"/>
<path d="M14.1227 14.8598L14.0125 14.7798L14.0525 14.7247" fill="white"/>
<path d="M13.9583 14.8601L14.0685 14.7801L14.0285 14.725" fill="white"/>
<path d="M13.9583 14.8601L14.0004 14.7306L14.0652 14.7516" fill="white"/>
<path d="M14.0367 15.0245L14.003 15.1281L14.0549 15.1449" fill="white"/>
<path d="M14.0367 15.0245L14.0704 15.1281L14.0186 15.1449" fill="white"/>
<path d="M14.1502 15.1H14.0412V15.1545" fill="white"/>
<path d="M14.1502 15.1L14.062 15.1641L14.03 15.12" fill="white"/>
<path d="M13.9367 15.1004L14.0249 15.1645L14.0569 15.1204" fill="white"/>
<path d="M13.9367 15.1004H14.0457V15.1549" fill="white"/>
<path d="M14.1072 15.222L14.0735 15.1184L14.0217 15.1352" fill="white"/>
<path d="M14.1072 15.222L14.019 15.1579L14.0511 15.1139" fill="white"/>
<path d="M13.9729 15.2212L14.0611 15.1572L14.0291 15.1131" fill="white"/>
<path d="M13.9729 15.2212L14.0066 15.1176L14.0584 15.1344" fill="white"/>
<path d="M14.4191 14.3423L14.3855 14.446L14.4373 14.4628" fill="white"/>
<path d="M14.4191 14.3423L14.4528 14.446L14.401 14.4628" fill="white"/>
<path d="M14.5286 14.4164H14.4196V14.4708" fill="white"/>
<path d="M14.5286 14.4164L14.4405 14.4804L14.4084 14.4363" fill="white"/>
<path d="M14.3148 14.4172L14.403 14.4813L14.435 14.4372" fill="white"/>
<path d="M14.3148 14.4172H14.4238V14.4717" fill="white"/>
<path d="M14.4857 14.5382L14.452 14.4346L14.4002 14.4514" fill="white"/>
<path d="M14.4857 14.5382L14.3976 14.4742L14.4296 14.4301" fill="white"/>
<path d="M14.36 14.5391L14.4482 14.4751L14.4162 14.431" fill="white"/>
<path d="M14.36 14.5391L14.3937 14.4355L14.4455 14.4523" fill="white"/>
<path d="M14.7276 14.1205L14.6855 14.25L14.7502 14.2711" fill="white"/>
<path d="M14.7276 14.1205L14.7697 14.25L14.7049 14.2711" fill="white"/>
<path d="M14.8671 14.2129H14.7309V14.281" fill="white"/>
<path d="M14.8671 14.2129L14.7569 14.2929L14.7169 14.2379" fill="white"/>
<path d="M14.6114 14.2161L14.7216 14.2962L14.7616 14.2411" fill="white"/>
<path d="M14.6114 14.2161H14.7476V14.2842" fill="white"/>
<path d="M14.8062 14.3668L14.7641 14.2372L14.6994 14.2583" fill="white"/>
<path d="M14.8062 14.3668L14.696 14.2867L14.736 14.2316" fill="white"/>
<path d="M14.6458 14.3671L14.756 14.287L14.716 14.2319" fill="white"/>
<path d="M14.6458 14.3671L14.6879 14.2375L14.7527 14.2586" fill="white"/>
<path d="M14.0324 14.2677L13.9987 14.3713L14.0506 14.3881" fill="white"/>
<path d="M14.0324 14.2677L14.0661 14.3713L14.0143 14.3881" fill="white"/>
<path d="M14.1387 14.3427H14.0297V14.3972" fill="white"/>
<path d="M14.1387 14.3427L14.0505 14.4068L14.0185 14.3627" fill="white"/>
<path d="M13.9281 14.3431L14.0163 14.4072L14.0483 14.3631" fill="white"/>
<path d="M13.9281 14.3431H14.0371V14.3976" fill="white"/>
<path d="M14.099 14.4646L14.0653 14.361L14.0135 14.3778" fill="white"/>
<path d="M14.099 14.4646L14.0108 14.4006L14.0429 14.3565" fill="white"/>
<path d="M13.9604 14.4649L14.0486 14.4009L14.0166 14.3568" fill="white"/>
<path d="M13.9604 14.4649L13.9941 14.3613L14.0459 14.3781" fill="white"/>
<path d="M10.6796 12.2949L10.6375 12.4244L10.7022 12.4454" fill="white"/>
<path d="M10.6796 12.2949L10.7217 12.4244L10.6569 12.4454" fill="white"/>
<path d="M10.8148 12.3878H10.6786V12.4559" fill="white"/>
<path d="M10.8148 12.3878L10.7047 12.4678L10.6646 12.4127" fill="white"/>
<path d="M10.5595 12.391L10.6697 12.4711L10.7097 12.416" fill="white"/>
<path d="M10.5595 12.391H10.6957V12.4591" fill="white"/>
<path d="M10.7582 12.5419L10.7161 12.4124L10.6513 12.4334" fill="white"/>
<path d="M10.7582 12.5419L10.648 12.4619L10.688 12.4068" fill="white"/>
<path d="M10.5981 12.5414L10.7083 12.4614L10.6683 12.4063" fill="white"/>
<path d="M10.5981 12.5414L10.6402 12.4119L10.705 12.4329" fill="white"/>
<path d="M13.1863 11.9742L13.1526 12.0778L13.2044 12.0947" fill="white"/>
<path d="M13.1863 11.9742L13.2199 12.0778L13.1681 12.0947" fill="white"/>
<path d="M13.2879 12.0492H13.179V12.1037" fill="white"/>
<path d="M13.2879 12.0492L13.1998 12.1133L13.1677 12.0692" fill="white"/>
<path d="M13.0859 12.0491L13.1741 12.1131L13.2061 12.0691" fill="white"/>
<path d="M13.0859 12.0491H13.1949V12.1036" fill="white"/>
<path d="M13.2525 12.1712L13.2188 12.0675L13.167 12.0844" fill="white"/>
<path d="M13.2525 12.1712L13.1644 12.1071L13.1964 12.0631" fill="white"/>
<path d="M13.1225 12.171L13.2107 12.1069L13.1787 12.0628" fill="white"/>
<path d="M13.1225 12.171L13.1562 12.0673L13.208 12.0842" fill="white"/>
<path d="M12.1494 13.824L12.0989 13.9795L12.1766 14.0047" fill="white"/>
<path d="M12.1494 13.824L12.1999 13.9795L12.1222 14.0047" fill="white"/>
<path d="M12.2997 13.9363H12.1363V14.018" fill="white"/>
<path d="M12.2997 13.9363L12.1675 14.0323L12.1194 13.9662" fill="white"/>
<path d="M11.9936 13.9377L12.1258 14.0337L12.1738 13.9676" fill="white"/>
<path d="M11.9936 13.9377H12.157V14.0194" fill="white"/>
<path d="M12.2398 14.1192L12.1893 13.9637L12.1116 13.989" fill="white"/>
<path d="M12.2398 14.1192L12.1076 14.0231L12.1556 13.957" fill="white"/>
<path d="M12.055 14.1192L12.1872 14.0231L12.1392 13.957" fill="white"/>
<path d="M12.055 14.1192L12.1055 13.9637L12.1832 13.989" fill="white"/>
<path d="M12.5791 13.0925L12.537 13.222L12.6018 13.243" fill="white"/>
<path d="M12.5791 13.0925L12.6212 13.222L12.5564 13.243" fill="white"/>
<path d="M12.719 13.1854H12.5828V13.2535" fill="white"/>
<path d="M12.719 13.1854L12.6089 13.2654L12.5688 13.2103" fill="white"/>
<path d="M12.4587 13.1886L12.5689 13.2687L12.6089 13.2136" fill="white"/>
<path d="M12.4587 13.1886H12.5949V13.2567" fill="white"/>
<path d="M12.6617 13.3393L12.6196 13.2097L12.5549 13.2308" fill="white"/>
<path d="M12.6617 13.3393L12.5515 13.2592L12.5916 13.2041" fill="white"/>
<path d="M12.4931 13.3395L12.6033 13.2595L12.5632 13.2044" fill="white"/>
<path d="M12.4931 13.3395L12.5352 13.21L12.5999 13.231" fill="white"/>
<path d="M12.1362 12.7493L12.0941 12.8788L12.1589 12.8998" fill="white"/>
<path d="M12.1362 12.7493L12.1783 12.8788L12.1135 12.8998" fill="white"/>
<path d="M12.2686 12.8411H12.1324V12.9092" fill="white"/>
<path d="M12.2686 12.8411L12.1584 12.9212L12.1183 12.8661" fill="white"/>
<path d="M12.0204 12.8454L12.1306 12.9255L12.1706 12.8704" fill="white"/>
<path d="M12.0204 12.8454H12.1566V12.9135" fill="white"/>
<path d="M12.2148 12.9961L12.1728 12.8665L12.108 12.8876" fill="white"/>
<path d="M12.2148 12.9961L12.1047 12.916L12.1447 12.8609" fill="white"/>
<path d="M12.0548 12.9963L12.165 12.9163L12.1249 12.8612" fill="white"/>
<path d="M12.0548 12.9963L12.0969 12.8668L12.1616 12.8878" fill="white"/>
<path d="M11.7551 13.1209L11.7214 13.2246L11.7732 13.2414" fill="white"/>
<path d="M11.7551 13.1209L11.7887 13.2246L11.7369 13.2414" fill="white"/>
<path d="M11.8613 13.1955H11.7524V13.2499" fill="white"/>
<path d="M11.8613 13.1955L11.7732 13.2595L11.7412 13.2154" fill="white"/>
<path d="M11.6551 13.1969L11.7432 13.2609L11.7752 13.2169" fill="white"/>
<path d="M11.6551 13.1969H11.764V13.2514" fill="white"/>
<path d="M11.8174 13.3185L11.7837 13.2148L11.7319 13.2317" fill="white"/>
<path d="M11.8174 13.3185L11.7292 13.2544L11.7612 13.2103" fill="white"/>
<path d="M11.6917 13.3182L11.7798 13.2542L11.7478 13.2101" fill="white"/>
<path d="M11.6917 13.3182L11.7253 13.2146L11.7772 13.2314" fill="white"/>
<path d="M11.9398 13.4158L11.9158 13.4899L11.9528 13.5019" fill="white"/>
<path d="M11.9398 13.4158L11.9639 13.4899L11.9269 13.5019" fill="white"/>
<path d="M12.0218 13.4697H11.9439V13.5086" fill="white"/>
<path d="M12.0218 13.4697L11.9588 13.5154L11.9359 13.484" fill="white"/>
<path d="M11.87 13.4698L11.933 13.5156L11.9559 13.4841" fill="white"/>
<path d="M11.87 13.4698H11.9478V13.5087" fill="white"/>
<path d="M11.9872 13.5571L11.9632 13.4831L11.9262 13.4951" fill="white"/>
<path d="M11.9872 13.5571L11.9243 13.5114L11.9472 13.4799" fill="white"/>
<path d="M11.8949 13.5565L11.9578 13.5108L11.935 13.4793" fill="white"/>
<path d="M11.8949 13.5565L11.9189 13.4825L11.9559 13.4946" fill="white"/>
<path d="M13.2839 14.707L13.2418 14.8366L13.3066 14.8576" fill="white"/>
<path d="M13.2839 14.707L13.326 14.8366L13.2612 14.8576" fill="white"/>
<path d="M13.428 14.7999H13.2918V14.868" fill="white"/>
<path d="M13.428 14.7999L13.3178 14.88L13.2778 14.8249" fill="white"/>
<path d="M13.1677 14.8026L13.2779 14.8827L13.3179 14.8276" fill="white"/>
<path d="M13.1677 14.8026H13.3039V14.8707" fill="white"/>
<path d="M13.3625 14.9538L13.3205 14.8243L13.2557 14.8453" fill="white"/>
<path d="M13.3625 14.9538L13.2524 14.8738L13.2924 14.8187" fill="white"/>
<path d="M13.202 14.953L13.3122 14.873L13.2722 14.8179" fill="white"/>
<path d="M13.202 14.953L13.2441 14.8235L13.3089 14.8445" fill="white"/>
<path d="M13.616 14.3993L13.5823 14.5029L13.6341 14.5197" fill="white"/>
<path d="M13.616 14.3993L13.6496 14.5029L13.5978 14.5197" fill="white"/>
<path d="M13.7133 14.4738H13.6043V14.5283" fill="white"/>
<path d="M13.7133 14.4738L13.6251 14.5378L13.5931 14.4938" fill="white"/>
<path d="M13.5113 14.4742L13.5995 14.5382L13.6315 14.4941" fill="white"/>
<path d="M13.5113 14.4742H13.6203V14.5286" fill="white"/>
<path d="M13.6822 14.5957L13.6485 14.492L13.5967 14.5089" fill="white"/>
<path d="M13.6822 14.5957L13.5941 14.5316L13.6261 14.4876" fill="white"/>
<path d="M13.5436 14.596L13.6318 14.532L13.5998 14.4879" fill="white"/>
<path d="M13.5436 14.596L13.5773 14.4924L13.6291 14.5092" fill="white"/>
<path d="M12.9851 14.3042L12.9514 14.4078L13.0032 14.4247" fill="white"/>
<path d="M12.9851 14.3042L13.0187 14.4078L12.9669 14.4247" fill="white"/>
<path d="M13.0949 14.3793H12.986V14.4338" fill="white"/>
<path d="M13.0949 14.3793L13.0068 14.4433L12.9748 14.3992" fill="white"/>
<path d="M12.8883 14.3802L12.9764 14.4442L13.0085 14.4001" fill="white"/>
<path d="M12.8883 14.3802H12.9972V14.4346" fill="white"/>
<path d="M13.0516 14.5017L13.018 14.3981L12.9662 14.4149" fill="white"/>
<path d="M13.0516 14.5017L12.9635 14.4377L12.9955 14.3936" fill="white"/>
<path d="M12.9206 14.5009L13.0087 14.4369L12.9767 14.3928" fill="white"/>
<path d="M12.9206 14.5009L12.9543 14.3973L13.0061 14.4142" fill="white"/>
<path d="M10.6112 14.1361L10.5606 14.2915L10.6384 14.3168" fill="white"/>
<path d="M10.6112 14.1361L10.6617 14.2915L10.5839 14.3168" fill="white"/>
<path d="M10.77 14.2478H10.6066V14.3295" fill="white"/>
<path d="M10.77 14.2478L10.6378 14.3439L10.5898 14.2778" fill="white"/>
<path d="M10.4596 14.2494L10.5918 14.3455L10.6398 14.2794" fill="white"/>
<path d="M10.4596 14.2494H10.623V14.3311" fill="white"/>
<path d="M10.7144 14.4318L10.6639 14.2763L10.5862 14.3016" fill="white"/>
<path d="M10.7144 14.4318L10.5822 14.3357L10.6302 14.2696" fill="white"/>
<path d="M10.521 14.4312L10.6533 14.3351L10.6052 14.269" fill="white"/>
<path d="M10.521 14.4312L10.5715 14.2758L10.6493 14.301" fill="white"/>
<path d="M12.1398 15.2028L12.1229 15.2546L12.1488 15.263" fill="white"/>
<path d="M12.1398 15.2028L12.1566 15.2546L12.1307 15.263" fill="white"/>
<path d="M12.1901 15.2409H12.1357V15.2681" fill="white"/>
<path d="M12.1901 15.2409L12.1461 15.2729L12.13 15.2509" fill="white"/>
<path d="M12.0849 15.2389L12.1289 15.2709L12.1449 15.2488" fill="white"/>
<path d="M12.0849 15.2389H12.1393V15.2661" fill="white"/>
<path d="M12.173 15.3022L12.1561 15.2503L12.1302 15.2588" fill="white"/>
<path d="M12.173 15.3022L12.1289 15.2701L12.1449 15.2481" fill="white"/>
<path d="M12.1053 15.3005L12.1494 15.2685L12.1333 15.2465" fill="white"/>
<path d="M12.1053 15.3005L12.1221 15.2487L12.148 15.2571" fill="white"/>
</g>
<defs>
<clipPath id="clip0_11648_23302">
<rect x="1" y="1" width="22" height="22" rx="11" fill="white"/>
</clipPath>
</defs>
</svg>
