<svg width="24" height="24" viewBox="0 0 24 24" fill="none" xmlns="http://www.w3.org/2000/svg">
<g clip-path="url(#clip0_10929_13692)">
<path d="M28.5 1H-4.5V23H28.5V1Z" fill="#B22234"/>
<path d="M-4.5 3.53845H28.5322H-4.5ZM28.5322 6.92307H-4.5H28.5322ZM-4.5 10.3077H28.5322H-4.5ZM28.5322 13.6923H-4.5H28.5322ZM-4.5 17.0769H28.5322H-4.5ZM28.5322 20.4615H-4.5H28.5322Z" fill="black"/>
<path d="M-4.5 3.53845H28.5322M28.5322 6.92307H-4.5M-4.5 10.3077H28.5322M28.5322 13.6923H-4.5M-4.5 17.0769H28.5322M28.5322 20.4615H-4.5" stroke="white" stroke-width="1.50439"/>
<path d="M12.22 1H-4.5V12.9401H12.22V1Z" fill="#3C3B6E"/>
<path d="M1.07406 2.69266L1.47195 3.91722L0.430267 3.1604H1.71785L0.676174 3.91722L1.07406 2.69266Z" fill="white"/>
<path d="M1.07415 5.06186L1.47204 6.28642L0.430359 5.5296H1.71794L0.676266 6.28642L1.07415 5.06186Z" fill="white"/>
<path d="M1.07415 7.431L1.47204 8.65557L0.430359 7.89874H1.71794L0.676266 8.65557L1.07415 7.431Z" fill="white"/>
<path d="M1.07415 9.80026L1.47204 11.0248L0.430359 10.268H1.71794L0.676266 11.0248L1.07415 9.80026Z" fill="white"/>
<path d="M2.46655 1.50818L2.86443 2.73274L1.82275 1.97592H3.11034L2.06866 2.73274L2.46655 1.50818Z" fill="white"/>
<path d="M2.46655 3.87744L2.86443 5.10201L1.82275 4.34518H3.11034L2.06866 5.10201L2.46655 3.87744Z" fill="white"/>
<path d="M2.46655 6.24658L2.86443 7.47115L1.82275 6.71432H3.11034L2.06866 7.47115L2.46655 6.24658Z" fill="white"/>
<path d="M2.46655 8.61584L2.86443 9.84041L1.82275 9.08359H3.11034L2.06866 9.84041L2.46655 8.61584Z" fill="white"/>
<path d="M2.46655 10.9849L2.86443 12.2095L1.82275 11.4527H3.11034L2.06866 12.2095L2.46655 10.9849Z" fill="white"/>
<path d="M3.85981 2.6925L4.2577 3.91707L3.21602 3.16025H4.5036L3.46193 3.91707L3.85981 2.6925Z" fill="white"/>
<path d="M3.85981 5.06177L4.2577 6.28633L3.21602 5.52951H4.5036L3.46193 6.28633L3.85981 5.06177Z" fill="white"/>
<path d="M3.85981 7.43091L4.2577 8.65547L3.21602 7.89865H4.5036L3.46193 8.65547L3.85981 7.43091Z" fill="white"/>
<path d="M3.85981 9.80017L4.2577 11.0247L3.21602 10.2679H4.5036L3.46193 11.0247L3.85981 9.80017Z" fill="white"/>
<path d="M5.25433 1.50803L5.65221 2.73259L4.61053 1.97577H5.89812L4.85644 2.73259L5.25433 1.50803Z" fill="white"/>
<path d="M5.25414 3.87732L5.65203 5.10188L4.61035 4.34506H5.89794L4.85626 5.10188L5.25414 3.87732Z" fill="white"/>
<path d="M5.25414 6.24646L5.65203 7.47103L4.61035 6.7142H5.89794L4.85626 7.47103L5.25414 6.24646Z" fill="white"/>
<path d="M5.25414 8.61572L5.65203 9.84029L4.61035 9.08347H5.89794L4.85626 9.84029L5.25414 8.61572Z" fill="white"/>
<path d="M5.25424 10.9849L5.65212 12.2094L4.61044 11.4526H5.89803L4.85635 12.2094L5.25424 10.9849Z" fill="white"/>
<path d="M6.64633 2.69269L7.04421 3.91725L6.00253 3.16043H7.29012L6.24844 3.91725L6.64633 2.69269Z" fill="white"/>
<path d="M6.64633 5.06195L7.04421 6.28652L6.00253 5.52969H7.29012L6.24844 6.28652L6.64633 5.06195Z" fill="white"/>
<path d="M6.64633 7.43121L7.04421 8.65578L6.00253 7.89896H7.29012L6.24844 8.65578L6.64633 7.43121Z" fill="white"/>
<path d="M6.64633 9.80048L7.04421 11.025L6.00253 10.2682H7.29012L6.24844 11.025L6.64633 9.80048Z" fill="white"/>
<path d="M8.03959 1.50781L8.43748 2.73238L7.3958 1.97555H8.68338L7.6417 2.73238L8.03959 1.50781Z" fill="white"/>
<path d="M8.03968 3.8772L8.43757 5.10176L7.39589 4.34494H8.68347L7.6418 5.10176L8.03968 3.8772Z" fill="white"/>
<path d="M8.03968 6.24634L8.43757 7.4709L7.39589 6.71408H8.68347L7.6418 7.4709L8.03968 6.24634Z" fill="white"/>
<path d="M8.03968 8.6156L8.43757 9.84017L7.39589 9.08334H8.68347L7.6418 9.84017L8.03968 8.6156Z" fill="white"/>
<path d="M8.03968 10.9849L8.43757 12.2094L7.39589 11.4526H8.68347L7.6418 12.2094L8.03968 10.9849Z" fill="white"/>
<path d="M9.43354 2.69269L9.83143 3.91725L8.78975 3.16043H10.0773L9.03566 3.91725L9.43354 2.69269Z" fill="white"/>
<path d="M9.43354 5.06195L9.83143 6.28652L8.78975 5.52969H10.0773L9.03566 6.28652L9.43354 5.06195Z" fill="white"/>
<path d="M9.43354 7.43121L9.83143 8.65578L8.78975 7.89896H10.0773L9.03566 8.65578L9.43354 7.43121Z" fill="white"/>
<path d="M9.43354 9.80048L9.83143 11.025L8.78975 10.2682H10.0773L9.03566 11.025L9.43354 9.80048Z" fill="white"/>
<path d="M10.8272 1.50781L11.2251 2.73238L10.1834 1.97555H11.471L10.4293 2.73238L10.8272 1.50781Z" fill="white"/>
<path d="M10.8272 3.87708L11.2251 5.10164L10.1834 4.34482H11.471L10.4293 5.10164L10.8272 3.87708Z" fill="white"/>
<path d="M10.8272 6.24622L11.2251 7.47078L10.1834 6.71396H11.471L10.4293 7.47078L10.8272 6.24622Z" fill="white"/>
<path d="M10.8272 8.61548L11.2251 9.84004L10.1834 9.08322H11.471L10.4293 9.84004L10.8272 8.61548Z" fill="white"/>
<path d="M10.8272 10.9847L11.2251 12.2093L10.1834 11.4525H11.471L10.4293 12.2093L10.8272 10.9847Z" fill="white"/>
</g>
<defs>
<clipPath id="clip0_10929_13692">
<rect x="1" y="1" width="22" height="22" rx="11" fill="white"/>
</clipPath>
</defs>
</svg>
