<svg width="24" height="24" viewBox="0 0 24 24" fill="none" xmlns="http://www.w3.org/2000/svg">
<path d="M12.0001 8.99882C12.2653 8.99882 12.5196 9.10418 12.7072 9.29171C12.8947 9.47925 13.0001 9.7336 13.0001 9.99882V13.9988H19.0001C19.5305 13.9988 20.0392 14.2095 20.4143 14.5846C20.7894 14.9597 21.0001 15.4684 21.0001 15.9988V18.9988C21.0001 19.5293 20.7894 20.038 20.4143 20.413C20.0392 20.7881 19.5305 20.9988 19.0001 20.9988H5.00007C4.46964 20.9988 3.96093 20.7881 3.58585 20.413C3.21078 20.038 3.00007 19.5293 3.00007 18.9988V15.9988C3.00007 15.4684 3.21078 14.9597 3.58585 14.5846C3.96093 14.2095 4.46964 13.9988 5.00007 13.9988H11.0001V9.99882C11.0001 9.7336 11.1054 9.47925 11.293 9.29171C11.4805 9.10418 11.7349 8.99882 12.0001 8.99882ZM19.0001 15.9988H5.00007V18.9988H19.0001V15.9988ZM6.66207 3.95782C6.86077 4.13331 6.98166 4.38052 6.99816 4.6451C7.01466 4.90969 6.92542 5.17 6.75007 5.36882C5.61993 6.64608 4.99731 8.29336 5.00007 9.99882C5.00007 10.2958 5.01807 10.5888 5.05407 10.8748C5.08032 11.1346 5.0039 11.3944 4.84117 11.5986C4.67843 11.8028 4.44227 11.9352 4.18317 11.9676C3.92407 12 3.66257 11.9298 3.45458 11.7719C3.24658 11.614 3.10858 11.3811 3.07007 11.1228C3.0235 10.75 3.00012 10.3746 3.00007 9.99882C2.99728 7.80618 3.7977 5.68846 5.25007 4.04582C5.33698 3.94729 5.44245 3.86684 5.56046 3.80909C5.67847 3.75134 5.8067 3.7174 5.93783 3.70923C6.06896 3.70106 6.20042 3.71881 6.32469 3.76146C6.44895 3.80412 6.5636 3.87084 6.66207 3.95782ZM18.7501 4.04582C20.2024 5.68846 21.0029 7.80618 21.0001 9.99882C21.0001 10.3788 20.9761 10.7538 20.9301 11.1228C20.9167 11.2555 20.8769 11.3841 20.8131 11.5011C20.7492 11.6182 20.6626 11.7212 20.5584 11.8043C20.4541 11.8874 20.3343 11.9488 20.206 11.9849C20.0776 12.021 19.9434 12.0311 19.8111 12.0146C19.6788 11.998 19.5512 11.9552 19.4357 11.8886C19.3202 11.8221 19.2192 11.7331 19.1386 11.6269C19.058 11.5207 18.9994 11.3994 18.9664 11.2703C18.9333 11.1411 18.9264 11.0067 18.9461 10.8748C18.9811 10.5888 19.0001 10.2958 19.0001 9.99882C19.0028 8.29336 18.3802 6.64608 17.2501 5.36882C17.1632 5.27033 17.0966 5.15569 17.054 5.03145C17.0114 4.90722 16.9938 4.77581 17.002 4.64474C17.0102 4.51367 17.0442 4.3855 17.1019 4.26756C17.1597 4.14961 17.2401 4.04419 17.3386 3.95732C17.4371 3.87045 17.5517 3.80383 17.6759 3.76127C17.8002 3.7187 17.9316 3.70102 18.0626 3.70924C18.3274 3.72584 18.5746 3.84691 18.7501 4.04582ZM9.66207 6.60282C9.7606 6.68973 9.84105 6.7952 9.8988 6.91321C9.95655 7.03122 9.99049 7.15946 9.99866 7.29059C10.0068 7.42172 9.98908 7.55317 9.94643 7.67744C9.90377 7.80171 9.83705 7.91635 9.75007 8.01482C9.46753 8.33355 9.25647 8.70906 9.13108 9.11612C9.00568 9.52317 8.96886 9.95235 9.02307 10.3748C9.04932 10.6346 8.9729 10.8944 8.81017 11.0986C8.64743 11.3028 8.41127 11.4352 8.15217 11.4676C7.89307 11.5 7.63157 11.4298 7.42358 11.2719C7.21558 11.114 7.07758 10.8811 7.03907 10.6228C6.94962 9.91915 7.01138 9.20449 7.22022 8.52659C7.42905 7.8487 7.78016 7.22318 8.25007 6.69182C8.42539 6.49328 8.67232 6.3724 8.93666 6.35571C9.20101 6.33902 9.46118 6.4279 9.66007 6.60282H9.66207ZM15.7501 6.69082C16.2202 7.22226 16.5714 7.84794 16.7802 8.52603C16.9891 9.20412 17.0507 9.91899 16.9611 10.6228C16.9226 10.8811 16.7846 11.114 16.5766 11.2719C16.3686 11.4298 16.1071 11.5 15.848 11.4676C15.5889 11.4352 15.3527 11.3028 15.19 11.0986C15.0272 10.8944 14.9508 10.6346 14.9771 10.3748C15.0314 9.95242 14.9947 9.52329 14.8695 9.11624C14.7443 8.70918 14.5334 8.33364 14.2511 8.01482C14.1638 7.91645 14.0967 7.80183 14.0538 7.67751C14.0108 7.5532 13.9928 7.42163 14.0008 7.29035C14.0088 7.15907 14.0426 7.03065 14.1003 6.91245C14.158 6.79425 14.2384 6.68859 14.337 6.60152C14.4356 6.51445 14.5503 6.44768 14.6748 6.40504C14.7992 6.3624 14.9308 6.34472 15.062 6.35301C15.1933 6.36131 15.3216 6.39542 15.4397 6.45338C15.5578 6.51135 15.6632 6.59203 15.7501 6.69082Z" fill="black"/>
</svg>
