<svg width="24" height="24" viewBox="0 0 24 24" fill="none" xmlns="http://www.w3.org/2000/svg">
<path fill-rule="evenodd" clip-rule="evenodd" d="M9.68259 7.20872C9.60184 7.42877 9.53912 7.59968 9.43093 7.66117C9.06624 7.86844 6.20983 7.51276 6.08839 7.45333C5.96694 7.39391 5.45003 5.85464 7.54763 4.04898C8.86744 2.9642 10.5566 2.43361 12.2596 2.56885C12.2596 2.56885 14.5998 2.5013 15.999 3.39761C17.3983 4.29392 17.8542 6.15148 17.8542 6.15148V13.8182C17.8542 13.8182 19.0995 15.6833 19.1297 16.0089C19.1598 16.3344 16.8199 18.2882 16.4848 18.3178C16.1497 18.3473 16.0288 18.2882 15.512 17.8145C15.0994 17.3903 14.7325 16.924 14.4174 16.4231C14.4174 16.4231 12.0769 19.1167 8.5201 18.2288C4.96326 17.3409 5.51054 14.1142 5.51054 14.1142C5.51054 14.1142 5.40495 11.4427 7.45591 10.0588C9.50687 8.67488 13.7174 8.57864 13.7174 8.57864V6.71384C13.7174 6.71384 13.1704 5.23399 11.407 5.61867C10.1668 5.88923 9.87403 6.68704 9.68259 7.20872ZM10.5861 11.6279C11.612 10.8507 13.778 10.8878 13.778 10.8878L13.778 12.7822C13.778 12.7822 13.4435 15.1505 11.7413 15.4465C10.0391 15.7425 9.67417 13.9072 9.67417 13.9072C9.67417 13.9072 9.56023 12.4051 10.5861 11.6279Z" fill="black"/>
<path d="M2.49956 18.4943C2.49956 18.4943 6.23899 21.3061 11.0722 21.6914C15.9054 22.0767 19.9489 19.7672 19.9489 19.7672C19.9489 19.7672 20.2226 19.7672 20.3136 19.9153C20.3622 20.0594 20.3622 20.2153 20.3136 20.3594C20.3136 20.3594 17.1829 23.7638 11.3456 23.4971C5.50827 23.2304 2.25611 18.9384 2.25611 18.9384C2.25611 18.9384 2.03579 18.6271 2.10423 18.4943C2.17267 18.3615 2.49956 18.4943 2.49956 18.4943Z" fill="#F8981D"/>
<path d="M18.2772 19.206C18.2772 19.206 19.1436 19.1173 19.797 19.1173C20.1637 19.114 20.5299 19.1437 20.8913 19.206C20.8913 19.206 21.1116 19.2947 21.013 19.9756C20.9144 20.6566 20.3063 21.7961 20.4961 21.9294C20.686 22.0628 21.393 21.3743 21.7716 20.509C22.1501 19.6437 22.1363 18.6144 22.0148 18.4665C21.8934 18.3187 20.8901 18.141 19.9172 18.2592C18.9443 18.3775 18.034 19.0874 18.2772 19.206Z" fill="#FC9D12"/>
</svg>
