<svg width="24" height="24" viewBox="0 0 24 24" fill="none" xmlns="http://www.w3.org/2000/svg">
<g clip-path="url(#clip0_11448_11039)">
<path d="M19.5625 1H4.4375C2.53902 1 1 2.53902 1 4.4375V19.5625C1 21.461 2.53902 23 4.4375 23H19.5625C21.461 23 23 21.461 23 19.5625V4.4375C23 2.53902 21.461 1 19.5625 1Z" fill="#FD4500"/>
<path d="M12 23C18.0751 23 23 18.0751 23 12C23 5.92487 18.0751 1 12 1C5.92487 1 1 5.92487 1 12C1 18.0751 5.92487 23 12 23Z" fill="#FD4500"/>
<path d="M19.3315 12C19.3318 11.6852 19.2393 11.3773 19.0657 11.1147C18.8921 10.8522 18.645 10.6465 18.3553 10.5234C18.0655 10.4004 17.746 10.3653 17.4365 10.4227C17.1269 10.48 16.8412 10.6273 16.6148 10.846C15.5183 10.0547 14.0075 9.54366 12.3248 9.48492L13.0555 6.04694L15.443 6.55446C15.4559 6.83347 15.5701 7.0982 15.7642 7.29902C15.9583 7.49984 16.219 7.62296 16.4974 7.64529C16.7758 7.66762 17.0528 7.58763 17.2765 7.42032C17.5001 7.25301 17.6551 7.00986 17.7123 6.73647C17.7694 6.46308 17.7249 6.17822 17.5871 5.93529C17.4493 5.69237 17.2275 5.50807 16.9635 5.41694C16.6995 5.32582 16.4113 5.33412 16.153 5.44031C15.8946 5.54649 15.6839 5.74326 15.5603 5.99372L12.8944 5.42702C12.8201 5.41124 12.7425 5.42563 12.6788 5.46701C12.6151 5.50839 12.5705 5.57338 12.5547 5.64768L11.7386 9.48388C10.0312 9.53126 8.49621 10.043 7.38561 10.8431C7.21698 10.6812 7.01499 10.5581 6.7938 10.4825C6.5726 10.4069 6.33755 10.3806 6.10511 10.4054C5.87267 10.4302 5.64847 10.5055 5.44821 10.6261C5.24796 10.7467 5.0765 10.9096 4.94584 11.1035C4.81518 11.2973 4.7285 11.5174 4.69185 11.7482C4.65521 11.9791 4.66949 12.2152 4.7337 12.44C4.79791 12.6647 4.91049 12.8727 5.06357 13.0494C5.21664 13.2261 5.40649 13.3672 5.61982 13.4627C5.59462 13.6232 5.58182 13.7854 5.58154 13.9479C5.58154 16.416 8.45438 18.4167 11.9982 18.4167C15.542 18.4167 18.4149 16.416 18.4149 13.9479C18.4146 13.7865 18.402 13.6254 18.3772 13.4659C18.6611 13.3402 18.9024 13.1347 19.0718 12.8745C19.2412 12.6143 19.3315 12.3105 19.3315 12ZM8.33333 13.146C8.33329 12.9194 8.40044 12.6978 8.5263 12.5094C8.65216 12.3209 8.83107 12.174 9.04041 12.0873C9.24975 12.0005 9.48012 11.9777 9.7024 12.0219C9.92467 12.066 10.1289 12.1751 10.2891 12.3353C10.4494 12.4955 10.5586 12.6996 10.6029 12.9219C10.6472 13.1441 10.6246 13.3745 10.5379 13.5839C10.4513 13.7933 10.3045 13.9723 10.1161 14.0982C9.92775 14.2242 9.70626 14.2915 9.47964 14.2916C9.32915 14.2917 9.18012 14.2621 9.04106 14.2045C8.902 14.147 8.77563 14.0626 8.66919 13.9562C8.56274 13.8499 8.47829 13.7235 8.42066 13.5845C8.36304 13.4455 8.33336 13.2965 8.33333 13.146ZM14.7226 16.1737C13.9405 16.9547 12.442 17.0154 12.0013 17.0154C11.5606 17.0154 10.0619 16.9547 9.28081 16.1735C9.22526 16.1178 9.19409 16.0423 9.19415 15.9636C9.19421 15.885 9.2255 15.8095 9.28115 15.7539C9.33679 15.6983 9.41224 15.667 9.49092 15.6669C9.56961 15.6669 9.64509 15.6981 9.7008 15.7537C10.1937 16.2466 11.2482 16.4215 12.0013 16.4215C12.7545 16.4215 13.8092 16.2466 14.3029 15.7535C14.3305 15.7259 14.3633 15.7041 14.3993 15.6892C14.4354 15.6743 14.474 15.6666 14.513 15.6666C14.552 15.6667 14.5906 15.6744 14.6266 15.6893C14.6626 15.7043 14.6953 15.7262 14.7229 15.7538C14.7504 15.7814 14.7723 15.8141 14.7872 15.8501C14.8021 15.8862 14.8097 15.9248 14.8097 15.9638C14.8097 16.0028 14.802 16.0414 14.787 16.0774C14.7721 16.1134 14.7502 16.1462 14.7226 16.1737ZM14.5208 14.2919C14.2942 14.2919 14.0726 14.2247 13.8842 14.0988C13.6957 13.9729 13.5488 13.7939 13.4621 13.5846C13.3753 13.3752 13.3526 13.1448 13.3968 12.9225C13.441 12.7002 13.5501 12.496 13.7104 12.3357C13.8706 12.1754 14.0748 12.0663 14.2971 12.022C14.5194 11.9778 14.7498 12.0005 14.9592 12.0872C15.1686 12.1739 15.3476 12.3208 15.4735 12.5092C15.5994 12.6977 15.6666 12.9192 15.6667 13.1459V13.1461C15.6663 13.4499 15.5455 13.7411 15.3306 13.9559C15.1158 14.1707 14.8246 14.2915 14.5208 14.2919Z" fill="white"/>
</g>
<defs>
<clipPath id="clip0_11448_11039">
<rect width="22" height="22" fill="white" transform="translate(1 1)"/>
</clipPath>
</defs>
</svg>
