<svg width="24" height="24" viewBox="0 0 24 24" fill="none" xmlns="http://www.w3.org/2000/svg">
<path d="M19.2159 5.32013C19.2007 5.21013 19.1044 5.14925 19.0247 5.14255C18.9452 5.13592 17.263 5.01123 17.263 5.01123C17.263 5.01123 16.0947 3.85133 15.9664 3.72295C15.8381 3.59464 15.5875 3.63366 15.4903 3.66229C15.4759 3.66651 15.235 3.74088 14.8364 3.86421C14.4462 2.74116 13.7574 1.70912 12.5456 1.70912C12.5122 1.70912 12.4778 1.71047 12.4433 1.71243C12.0987 1.25669 11.6718 1.05869 11.3031 1.05869C8.48039 1.05869 7.13183 4.58735 6.70901 6.3805C5.61218 6.72037 4.83298 6.96199 4.73346 6.99326C4.12122 7.18531 4.10186 7.2046 4.02147 7.78149C3.96097 8.21825 2.35904 20.6067 2.35904 20.6067L14.8416 22.9455L21.6051 21.4824C21.6051 21.4824 19.2308 5.43013 19.2159 5.32013ZM14.1465 4.07758L13.0903 4.40449C13.0907 4.33006 13.091 4.25682 13.091 4.17673C13.091 3.47876 12.9942 2.91678 12.8387 2.47128C13.4631 2.54964 13.8789 3.26004 14.1465 4.07758ZM12.0642 2.60969C12.2378 3.04464 12.3507 3.66885 12.3507 4.51118C12.3507 4.55427 12.3503 4.59368 12.3499 4.63353C11.663 4.8463 10.9166 5.0773 10.1685 5.30906C10.5885 3.68799 11.3759 2.90503 12.0642 2.60969ZM11.2256 1.8158C11.3474 1.8158 11.4701 1.85716 11.5876 1.93801C10.683 2.36369 9.71329 3.43582 9.30381 5.57682L7.57952 6.11085C8.05915 4.4778 9.1981 1.8158 11.2256 1.8158Z" fill="#95BF46"/>
<path d="M19.0247 5.14254C18.9452 5.13591 17.263 5.01122 17.263 5.01122C17.263 5.01122 16.0946 3.85132 15.9664 3.72294C15.9184 3.67517 15.8537 3.65068 15.786 3.64014L14.8422 22.9454L21.6051 21.4824C21.6051 21.4824 19.2308 5.43012 19.2159 5.32012C19.2007 5.21012 19.1043 5.14925 19.0247 5.14254Z" fill="#5E8E3E"/>
<path d="M12.5456 8.87969L11.7117 11.3604C11.7117 11.3604 10.981 10.9704 10.0853 10.9704C8.77224 10.9704 8.70616 11.7945 8.70616 12.0021C8.70616 13.1351 11.6596 13.5692 11.6596 16.2231C11.6596 18.3111 10.3353 19.6555 8.54968 19.6555C6.40694 19.6555 5.31116 18.322 5.31116 18.322L5.88489 16.4264C5.88489 16.4264 7.01126 17.3934 7.96171 17.3934C8.58275 17.3934 8.83538 16.9044 8.83538 16.5471C8.83538 15.0692 6.41236 15.0033 6.41236 12.5748C6.41236 10.5308 7.87943 8.55286 10.8408 8.55286C11.9819 8.55286 12.5456 8.87969 12.5456 8.87969Z" fill="white"/>
</svg>
