<svg width="40" height="40" viewBox="0 0 40 40" fill="none" xmlns="http://www.w3.org/2000/svg">
<g clip-path="url(#clip0_55809_31554)">
<mask id="mask0_55809_31554" style="mask-type:luminance" maskUnits="userSpaceOnUse" x="0" y="0" width="40" height="40">
<path d="M40 0H0V40H40V0Z" fill="white"/>
</mask>
<g mask="url(#mask0_55809_31554)">
<mask id="mask1_55809_31554" style="mask-type:luminance" maskUnits="userSpaceOnUse" x="0" y="0" width="40" height="40">
<path d="M40 20C40 8.95433 31.0457 0 20 0C8.95433 0 0 8.95433 0 20C0 31.0457 8.95433 40 20 40C31.0457 40 40 31.0457 40 20Z" fill="white"/>
</mask>
<g mask="url(#mask1_55809_31554)">
<path d="M50 0H-10V40H50V0Z" fill="#B22234"/>
<path d="M-10 4.61523H50.0586M50.0586 10.7691H-10M-10 16.923H50.0586M50.0586 23.0767H-10M-10 29.2306H50.0586M50.0586 35.3845H-10" stroke="white" stroke-width="3"/>
<path d="M20.4 0H-10V21.7093H20.4V0Z" fill="#3C3B6E"/>
<path d="M0.135191 3.07751L0.858619 5.30401L-1.03534 3.92796H1.30572L-0.588238 5.30401L0.135191 3.07751Z" fill="white"/>
<path d="M0.135381 7.38513L0.85881 9.61162L-1.03516 8.23557H1.30592L-0.588047 9.61162L0.135381 7.38513Z" fill="white"/>
<path d="M0.135381 11.6926L0.85881 13.9191L-1.03516 12.543H1.30592L-0.588047 13.9191L0.135381 11.6926Z" fill="white"/>
<path d="M0.135381 16.0004L0.85881 18.2269L-1.03516 16.8509H1.30592L-0.588047 18.2269L0.135381 16.0004Z" fill="white"/>
<path d="M2.66644 0.923828L3.38987 3.15031L1.49591 1.77427H3.83697L1.94301 3.15031L2.66644 0.923828Z" fill="white"/>
<path d="M2.66644 5.23181L3.38987 7.45829L1.49591 6.08225H3.83697L1.94301 7.45829L2.66644 5.23181Z" fill="white"/>
<path d="M2.66644 9.53943L3.38987 11.7658L1.49591 10.3898H3.83697L1.94301 11.7658L2.66644 9.53943Z" fill="white"/>
<path d="M2.66644 13.8469L3.38987 16.0734L1.49591 14.6973H3.83697L1.94301 16.0734L2.66644 13.8469Z" fill="white"/>
<path d="M2.66644 18.1543L3.38987 20.3808L1.49591 19.0048H3.83697L1.94301 20.3808L2.66644 18.1543Z" fill="white"/>
<path d="M5.19966 3.07715L5.92307 5.30362L4.02911 3.92759H6.37019L4.47622 5.30362L5.19966 3.07715Z" fill="white"/>
<path d="M5.19966 7.38513L5.92307 9.61162L4.02911 8.23557H6.37019L4.47622 9.61162L5.19966 7.38513Z" fill="white"/>
<path d="M5.19966 11.6926L5.92307 13.919L4.02911 12.543H6.37019L4.47622 13.919L5.19966 11.6926Z" fill="white"/>
<path d="M5.19966 16.0004L5.92307 18.2269L4.02911 16.8508H6.37019L4.47622 18.2269L5.19966 16.0004Z" fill="white"/>
<path d="M7.73468 0.923462L8.45811 3.14995L6.56415 1.7739H8.90519L7.01125 3.14995L7.73468 0.923462Z" fill="white"/>
<path d="M7.73451 5.23145L8.45791 7.45793L6.56396 6.08189H8.905L7.01107 7.45793L7.73451 5.23145Z" fill="white"/>
<path d="M7.73451 9.53906L8.45791 11.7656L6.56396 10.3895H8.905L7.01107 11.7656L7.73451 9.53906Z" fill="white"/>
<path d="M7.73451 13.8467L8.45791 16.0732L6.56396 14.6971H8.905L7.01107 16.0732L7.73451 13.8467Z" fill="white"/>
<path d="M7.73468 18.1543L8.45811 20.3808L6.56415 19.0046H8.90519L7.01125 20.3808L7.73468 18.1543Z" fill="white"/>
<path d="M10.2661 3.07751L10.9895 5.30399L9.09552 3.92796H11.4366L9.54269 5.30399L10.2661 3.07751Z" fill="white"/>
<path d="M10.2661 7.38538L10.9895 9.61188L9.09552 8.23583H11.4366L9.54269 9.61188L10.2661 7.38538Z" fill="white"/>
<path d="M10.2661 11.693L10.9895 13.9194L9.09552 12.5434H11.4366L9.54269 13.9194L10.2661 11.693Z" fill="white"/>
<path d="M10.2661 16.001L10.9895 18.2274L9.09552 16.8514H11.4366L9.54269 18.2274L10.2661 16.001Z" fill="white"/>
<path d="M12.7993 0.923218L13.5227 3.1497L11.6287 1.77366H13.9698L12.0758 3.1497L12.7993 0.923218Z" fill="white"/>
<path d="M12.7994 5.23108L13.5229 7.45757L11.6289 6.08152H13.97L12.076 7.45757L12.7994 5.23108Z" fill="white"/>
<path d="M12.7994 9.53882L13.5229 11.7652L11.6289 10.3892H13.97L12.076 11.7652L12.7994 9.53882Z" fill="white"/>
<path d="M12.7994 13.8467L13.5229 16.0731L11.6289 14.6971H13.97L12.076 16.0731L12.7994 13.8467Z" fill="white"/>
<path d="M12.7994 18.1543L13.5229 20.3808L11.6289 19.0046H13.97L12.076 20.3808L12.7994 18.1543Z" fill="white"/>
<path d="M15.3344 3.07751L16.0579 5.30399L14.1639 3.92796H16.5049L14.611 5.30399L15.3344 3.07751Z" fill="white"/>
<path d="M15.3344 7.38538L16.0579 9.61188L14.1639 8.23583H16.5049L14.611 9.61188L15.3344 7.38538Z" fill="white"/>
<path d="M15.3344 11.693L16.0579 13.9194L14.1639 12.5434H16.5049L14.611 13.9194L15.3344 11.693Z" fill="white"/>
<path d="M15.3344 16.001L16.0579 18.2274L14.1639 16.8514H16.5049L14.611 18.2274L15.3344 16.001Z" fill="white"/>
<path d="M17.8676 0.923218L18.591 3.1497L16.6971 1.77366H19.0381L17.1442 3.1497L17.8676 0.923218Z" fill="white"/>
<path d="M17.8676 5.23108L18.591 7.45756L16.6971 6.08152H19.0381L17.1442 7.45756L17.8676 5.23108Z" fill="white"/>
<path d="M17.8676 9.53845L18.591 11.765L16.6971 10.3889H19.0381L17.1442 11.765L17.8676 9.53845Z" fill="white"/>
<path d="M17.8676 13.8463L18.591 16.0728L16.6971 14.6968H19.0381L17.1442 16.0728L17.8676 13.8463Z" fill="white"/>
<path d="M17.8676 18.1541L18.591 20.3804L16.6971 19.0044H19.0381L17.1442 20.3804L17.8676 18.1541Z" fill="white"/>
</g>
</g>
</g>
<defs>
<clipPath id="clip0_55809_31554">
<rect width="40" height="40" fill="white"/>
</clipPath>
</defs>
</svg>
