<svg width="24" height="24" viewBox="0 0 24 24" fill="none" xmlns="http://www.w3.org/2000/svg">
<path d="M10.1667 13.8336V19.7507C10.1667 20.256 9.75531 20.6673 9.25 20.6673C9.195 20.6662 9.14 20.6616 9.08615 20.6524L1.75281 19.3187C1.31625 19.2385 1 18.8592 1 18.4169V13.8336C1 13.3271 1.41021 12.9169 1.91667 12.9169H9.25C9.75531 12.9169 10.1667 13.3271 10.1667 13.8336ZM9.83781 3.54629C9.62813 3.37098 9.35313 3.29879 9.08615 3.34806L1.75281 4.68181C1.31625 4.76088 1 5.14015 1 5.58358V10.1669C1 10.6722 1.41021 11.0836 1.91667 11.0836H9.25C9.75531 11.0836 10.1667 10.6722 10.1667 10.1669V4.24983C10.1667 3.97713 10.0452 3.72046 9.83781 3.54629ZM22.0833 12.9169H12.9167C12.4102 12.9169 12 13.3271 12 13.8336V20.4164C11.9989 20.8598 12.3161 21.2391 12.7527 21.3193L21.9194 22.9854C21.9732 22.9945 22.0282 23.0003 22.0832 23.0003C22.5885 23.0003 22.9999 22.5889 22.9999 22.0836V13.8336C22.9999 13.3271 22.5885 12.9169 22.0832 12.9169H22.0833ZM22.6711 1.21338C22.4615 1.03806 22.1865 0.965876 21.9195 1.01515L12.7528 2.68233C12.3163 2.7614 12 3.14067 12 3.58411V10.1669C12 10.6722 12.4102 11.0836 12.9167 11.0836H22.0833C22.5886 11.0836 23 10.6722 23 10.1669V1.91692C23 1.64421 22.8785 1.38754 22.6711 1.21338Z" fill="#3384FF"/>
</svg>